<svg width="670" height="669" viewBox="0 0 670 669" fill="none" xmlns="http://www.w3.org/2000/svg">
<g clip-path="url(#clip0_267_8922)">
<rect width="670" height="669" fill="white"/>
<g clip-path="url(#clip1_267_8922)">
<rect x="-1" y="-1" width="672" height="676" fill="#73787E" stroke="black" stroke-width="2" stroke-linejoin="round"/>
<g clip-path="url(#clip2_267_8922)">
<rect x="0.5" y="0.5" width="66" height="66" fill="#73787E" stroke="#CACCCD" stroke-linejoin="round"/>
<rect x="0.5" y="0.5" width="66" height="66" stroke="#CACCCD" stroke-linejoin="round"/>
</g>
<g clip-path="url(#clip3_267_8922)">
<rect x="67.5" y="0.5" width="66" height="66" fill="#73787E" stroke="#CACCCD" stroke-linejoin="round"/>
<rect x="67.5" y="0.5" width="66" height="66" stroke="#CACCCD" stroke-linejoin="round"/>
</g>
<g clip-path="url(#clip4_267_8922)">
<rect x="134.5" y="0.5" width="66" height="66" fill="#73787E" stroke="#CACCCD" stroke-linejoin="round"/>
<rect x="134.5" y="0.5" width="66" height="66" stroke="#CACCCD" stroke-linejoin="round"/>
</g>
<g clip-path="url(#clip5_267_8922)">
<rect x="201.5" y="0.5" width="66" height="66" fill="#73787E" stroke="#CACCCD" stroke-linejoin="round"/>
<rect x="201.5" y="0.5" width="66" height="66" stroke="#CACCCD" stroke-linejoin="round"/>
</g>
<g clip-path="url(#clip6_267_8922)">
<rect x="268.5" y="0.5" width="66" height="66" fill="#73787E" stroke="#CACCCD" stroke-linejoin="round"/>
<rect x="268.5" y="0.5" width="66" height="66" stroke="#CACCCD" stroke-linejoin="round"/>
</g>
<g clip-path="url(#clip7_267_8922)">
<rect x="335.5" y="0.5" width="66" height="66" fill="#73787E" stroke="#CACCCD" stroke-linejoin="round"/>
<rect x="335.5" y="0.5" width="66" height="66" stroke="#CACCCD" stroke-linejoin="round"/>
</g>
<g clip-path="url(#clip8_267_8922)">
<rect x="402.5" y="0.5" width="66" height="66" fill="#73787E" stroke="#CACCCD" stroke-linejoin="round"/>
<rect x="402.5" y="0.5" width="66" height="66" stroke="#CACCCD" stroke-linejoin="round"/>
</g>
<g clip-path="url(#clip9_267_8922)">
<rect x="469.5" y="0.5" width="66" height="66" fill="#73787E" stroke="#CACCCD" stroke-linejoin="round"/>
<rect x="469.5" y="0.5" width="66" height="66" stroke="#CACCCD" stroke-linejoin="round"/>
</g>
<g clip-path="url(#clip10_267_8922)">
<rect x="536.5" y="0.5" width="66" height="66" fill="#73787E" stroke="#CACCCD" stroke-linejoin="round"/>
<rect x="536.5" y="0.5" width="66" height="66" stroke="#CACCCD" stroke-linejoin="round"/>
</g>
<g clip-path="url(#clip11_267_8922)">
<rect x="603.5" y="0.5" width="66" height="66" fill="#73787E" stroke="#CACCCD" stroke-linejoin="round"/>
<rect x="603.5" y="0.5" width="66" height="66" stroke="#CACCCD" stroke-linejoin="round"/>
</g>
<g clip-path="url(#clip12_267_8922)">
<rect x="0.5" y="67.5" width="66" height="66" fill="#73787E" stroke="#CACCCD" stroke-linejoin="round"/>
<rect x="0.5" y="67.5" width="66" height="66" stroke="#CACCCD" stroke-linejoin="round"/>
</g>
<g clip-path="url(#clip13_267_8922)">
<rect x="67.5" y="67.5" width="66" height="66" fill="#73787E" stroke="#CACCCD" stroke-linejoin="round"/>
<rect x="67.5" y="67.5" width="66" height="66" stroke="#CACCCD" stroke-linejoin="round"/>
</g>
<g clip-path="url(#clip14_267_8922)">
<rect x="134.5" y="67.5" width="66" height="66" fill="#73787E" stroke="#CACCCD" stroke-linejoin="round"/>
<rect x="134.5" y="67.5" width="66" height="66" stroke="#CACCCD" stroke-linejoin="round"/>
</g>
<g clip-path="url(#clip15_267_8922)">
<rect x="201.5" y="67.5" width="66" height="66" fill="#73787E" stroke="#CACCCD" stroke-linejoin="round"/>
<rect x="201.5" y="67.5" width="66" height="66" stroke="#CACCCD" stroke-linejoin="round"/>
</g>
<g clip-path="url(#clip16_267_8922)">
<rect x="268.5" y="67.5" width="66" height="66" fill="#73787E" stroke="#CACCCD" stroke-linejoin="round"/>
<rect x="268.5" y="67.5" width="66" height="66" stroke="#CACCCD" stroke-linejoin="round"/>
</g>
<g clip-path="url(#clip17_267_8922)">
<rect x="335.5" y="67.5" width="66" height="66" fill="#73787E" stroke="#CACCCD" stroke-linejoin="round"/>
<rect x="335.5" y="67.5" width="66" height="66" stroke="#CACCCD" stroke-linejoin="round"/>
</g>
<g clip-path="url(#clip18_267_8922)">
<rect x="402.5" y="67.5" width="66" height="66" fill="#73787E" stroke="#CACCCD" stroke-linejoin="round"/>
<rect x="402.5" y="67.5" width="66" height="66" stroke="#CACCCD" stroke-linejoin="round"/>
</g>
<g clip-path="url(#clip19_267_8922)">
<rect x="469.5" y="67.5" width="66" height="66" fill="#73787E" stroke="#CACCCD" stroke-linejoin="round"/>
<rect x="469.5" y="67.5" width="66" height="66" stroke="#CACCCD" stroke-linejoin="round"/>
</g>
<g clip-path="url(#clip20_267_8922)">
<rect x="536.5" y="67.5" width="66" height="66" fill="#73787E" stroke="#CACCCD" stroke-linejoin="round"/>
<rect x="536.5" y="67.5" width="66" height="66" stroke="#CACCCD" stroke-linejoin="round"/>
</g>
<g clip-path="url(#clip21_267_8922)">
<rect x="603.5" y="67.5" width="66" height="66" fill="#73787E" stroke="#CACCCD" stroke-linejoin="round"/>
<rect x="603.5" y="67.5" width="66" height="66" stroke="#CACCCD" stroke-linejoin="round"/>
</g>
<g clip-path="url(#clip22_267_8922)">
<rect x="0.5" y="134.5" width="66" height="66" fill="#73787E" stroke="#CACCCD" stroke-linejoin="round"/>
<rect x="0.5" y="134.5" width="66" height="66" stroke="#CACCCD" stroke-linejoin="round"/>
</g>
<g clip-path="url(#clip23_267_8922)">
<rect x="67.5" y="134.5" width="66" height="66" fill="#73787E" stroke="#CACCCD" stroke-linejoin="round"/>
<rect x="67.5" y="134.5" width="66" height="66" stroke="#CACCCD" stroke-linejoin="round"/>
</g>
<g clip-path="url(#clip24_267_8922)">
<rect x="134.5" y="134.5" width="66" height="66" fill="#73787E" stroke="#CACCCD" stroke-linejoin="round"/>
<rect x="134.5" y="134.5" width="66" height="66" stroke="#CACCCD" stroke-linejoin="round"/>
</g>
<g clip-path="url(#clip25_267_8922)">
<rect x="201.5" y="134.5" width="66" height="66" fill="#73787E" stroke="#CACCCD" stroke-linejoin="round"/>
<rect x="201.5" y="134.5" width="66" height="66" stroke="#CACCCD" stroke-linejoin="round"/>
</g>
<g clip-path="url(#clip26_267_8922)">
<rect x="268.5" y="134.5" width="66" height="66" fill="#73787E" stroke="#CACCCD" stroke-linejoin="round"/>
<rect x="268.5" y="134.5" width="66" height="66" stroke="#CACCCD" stroke-linejoin="round"/>
</g>
<g clip-path="url(#clip27_267_8922)">
<rect x="335.5" y="134.5" width="66" height="66" fill="#73787E" stroke="#CACCCD" stroke-linejoin="round"/>
<rect x="335.5" y="134.5" width="66" height="66" stroke="#CACCCD" stroke-linejoin="round"/>
</g>
<g clip-path="url(#clip28_267_8922)">
<rect x="402.5" y="134.5" width="66" height="66" fill="#73787E" stroke="#CACCCD" stroke-linejoin="round"/>
<rect x="402.5" y="134.5" width="66" height="66" stroke="#CACCCD" stroke-linejoin="round"/>
</g>
<g clip-path="url(#clip29_267_8922)">
<rect x="469.5" y="134.5" width="66" height="66" fill="#73787E" stroke="#CACCCD" stroke-linejoin="round"/>
<rect x="469.5" y="134.5" width="66" height="66" stroke="#CACCCD" stroke-linejoin="round"/>
</g>
<g clip-path="url(#clip30_267_8922)">
<rect x="536.5" y="134.5" width="66" height="66" fill="#73787E" stroke="#CACCCD" stroke-linejoin="round"/>
<rect x="536.5" y="134.5" width="66" height="66" stroke="#CACCCD" stroke-linejoin="round"/>
</g>
<g clip-path="url(#clip31_267_8922)">
<rect x="603.5" y="134.5" width="66" height="66" fill="#73787E" stroke="#CACCCD" stroke-linejoin="round"/>
<rect x="603.5" y="134.5" width="66" height="66" stroke="#CACCCD" stroke-linejoin="round"/>
</g>
<g clip-path="url(#clip32_267_8922)">
<rect x="0.5" y="201.5" width="66" height="66" fill="#73787E" stroke="#CACCCD" stroke-linejoin="round"/>
<rect x="0.5" y="201.5" width="66" height="66" stroke="#CACCCD" stroke-linejoin="round"/>
</g>
<g clip-path="url(#clip33_267_8922)">
<rect x="67.5" y="201.5" width="66" height="66" fill="#73787E" stroke="#CACCCD" stroke-linejoin="round"/>
<rect x="67.5" y="201.5" width="66" height="66" stroke="#CACCCD" stroke-linejoin="round"/>
</g>
<g clip-path="url(#clip34_267_8922)">
<rect x="134.5" y="201.5" width="66" height="66" fill="#73787E" stroke="#CACCCD" stroke-linejoin="round"/>
<rect x="134.5" y="201.5" width="66" height="66" stroke="#CACCCD" stroke-linejoin="round"/>
</g>
<g clip-path="url(#clip35_267_8922)">
<rect x="201.5" y="201.5" width="66" height="66" fill="#73787E" stroke="#CACCCD" stroke-linejoin="round"/>
<rect x="201.5" y="201.5" width="66" height="66" stroke="#CACCCD" stroke-linejoin="round"/>
</g>
<g clip-path="url(#clip36_267_8922)">
<rect x="268.5" y="201.5" width="66" height="66" fill="#73787E" stroke="#CACCCD" stroke-linejoin="round"/>
<rect x="268.5" y="201.5" width="66" height="66" stroke="#CACCCD" stroke-linejoin="round"/>
</g>
<g clip-path="url(#clip37_267_8922)">
<rect x="335.5" y="201.5" width="66" height="66" fill="#73787E" stroke="#CACCCD" stroke-linejoin="round"/>
<rect x="335.5" y="201.5" width="66" height="66" stroke="#CACCCD" stroke-linejoin="round"/>
</g>
<g clip-path="url(#clip38_267_8922)">
<rect x="402.5" y="201.5" width="66" height="66" fill="#73787E" stroke="#CACCCD" stroke-linejoin="round"/>
<rect x="402.5" y="201.5" width="66" height="66" stroke="#CACCCD" stroke-linejoin="round"/>
</g>
<g clip-path="url(#clip39_267_8922)">
<rect x="469.5" y="201.5" width="66" height="66" fill="#73787E" stroke="#CACCCD" stroke-linejoin="round"/>
<rect x="469.5" y="201.5" width="66" height="66" stroke="#CACCCD" stroke-linejoin="round"/>
</g>
<g clip-path="url(#clip40_267_8922)">
<rect x="536.5" y="201.5" width="66" height="66" fill="#73787E" stroke="#CACCCD" stroke-linejoin="round"/>
<rect x="536.5" y="201.5" width="66" height="66" stroke="#CACCCD" stroke-linejoin="round"/>
</g>
<g clip-path="url(#clip41_267_8922)">
<rect x="603.5" y="201.5" width="66" height="66" fill="#73787E" stroke="#CACCCD" stroke-linejoin="round"/>
<rect x="603.5" y="201.5" width="66" height="66" stroke="#CACCCD" stroke-linejoin="round"/>
</g>
<g clip-path="url(#clip42_267_8922)">
<rect x="0.5" y="268.5" width="66" height="66" fill="#73787E" stroke="#CACCCD" stroke-linejoin="round"/>
<rect x="0.5" y="268.5" width="66" height="66" stroke="#CACCCD" stroke-linejoin="round"/>
</g>
<g clip-path="url(#clip43_267_8922)">
<rect x="67.5" y="268.5" width="66" height="66" fill="#73787E" stroke="#CACCCD" stroke-linejoin="round"/>
<rect x="67.5" y="268.5" width="66" height="66" stroke="#CACCCD" stroke-linejoin="round"/>
</g>
<g clip-path="url(#clip44_267_8922)">
<rect x="134.5" y="268.5" width="66" height="66" fill="#73787E" stroke="#CACCCD" stroke-linejoin="round"/>
<rect x="134.5" y="268.5" width="66" height="66" stroke="#CACCCD" stroke-linejoin="round"/>
</g>
<g clip-path="url(#clip45_267_8922)">
<rect x="201.5" y="268.5" width="66" height="66" fill="#73787E" stroke="#CACCCD" stroke-linejoin="round"/>
<rect x="201.5" y="268.5" width="66" height="66" stroke="#CACCCD" stroke-linejoin="round"/>
</g>
<g clip-path="url(#clip46_267_8922)">
<rect x="268.5" y="268.5" width="66" height="66" fill="#73787E" stroke="#CACCCD" stroke-linejoin="round"/>
<rect x="268.5" y="268.5" width="66" height="66" stroke="#CACCCD" stroke-linejoin="round"/>
</g>
<g clip-path="url(#clip47_267_8922)">
<rect x="335.5" y="268.5" width="66" height="66" fill="#73787E" stroke="#CACCCD" stroke-linejoin="round"/>
<rect x="335.5" y="268.5" width="66" height="66" stroke="#CACCCD" stroke-linejoin="round"/>
</g>
<g clip-path="url(#clip48_267_8922)">
<rect x="402.5" y="268.5" width="66" height="66" fill="#73787E" stroke="#CACCCD" stroke-linejoin="round"/>
<rect x="402.5" y="268.5" width="66" height="66" stroke="#CACCCD" stroke-linejoin="round"/>
</g>
<g clip-path="url(#clip49_267_8922)">
<rect x="469.5" y="268.5" width="66" height="66" fill="#73787E" stroke="#CACCCD" stroke-linejoin="round"/>
<rect x="469.5" y="268.5" width="66" height="66" stroke="#CACCCD" stroke-linejoin="round"/>
</g>
<g clip-path="url(#clip50_267_8922)">
<rect x="536.5" y="268.5" width="66" height="66" fill="#73787E" stroke="#CACCCD" stroke-linejoin="round"/>
<rect x="536.5" y="268.5" width="66" height="66" stroke="#CACCCD" stroke-linejoin="round"/>
</g>
<g clip-path="url(#clip51_267_8922)">
<rect x="603.5" y="268.5" width="66" height="66" fill="#73787E" stroke="#CACCCD" stroke-linejoin="round"/>
<rect x="603.5" y="268.5" width="66" height="66" stroke="#CACCCD" stroke-linejoin="round"/>
</g>
<g clip-path="url(#clip52_267_8922)">
<rect x="0.5" y="335.5" width="66" height="66" fill="#73787E" stroke="#CACCCD" stroke-linejoin="round"/>
<rect x="0.5" y="335.5" width="66" height="66" stroke="#CACCCD" stroke-linejoin="round"/>
</g>
<g clip-path="url(#clip53_267_8922)">
<rect x="67.5" y="335.5" width="66" height="66" fill="#73787E" stroke="#CACCCD" stroke-linejoin="round"/>
<rect x="67.5" y="335.5" width="66" height="66" stroke="#CACCCD" stroke-linejoin="round"/>
</g>
<g clip-path="url(#clip54_267_8922)">
<rect x="134.5" y="335.5" width="66" height="66" fill="#73787E" stroke="#CACCCD" stroke-linejoin="round"/>
<rect x="134.5" y="335.5" width="66" height="66" stroke="#CACCCD" stroke-linejoin="round"/>
</g>
<g clip-path="url(#clip55_267_8922)">
<rect x="201.5" y="335.5" width="66" height="66" fill="#73787E" stroke="#CACCCD" stroke-linejoin="round"/>
<rect x="201.5" y="335.5" width="66" height="66" stroke="#CACCCD" stroke-linejoin="round"/>
</g>
<g clip-path="url(#clip56_267_8922)">
<rect x="268.5" y="335.5" width="66" height="66" fill="#73787E" stroke="#CACCCD" stroke-linejoin="round"/>
<rect x="268.5" y="335.5" width="66" height="66" stroke="#CACCCD" stroke-linejoin="round"/>
</g>
<g clip-path="url(#clip57_267_8922)">
<rect x="335.5" y="335.5" width="66" height="66" fill="#73787E" stroke="#CACCCD" stroke-linejoin="round"/>
<rect x="335.5" y="335.5" width="66" height="66" stroke="#CACCCD" stroke-linejoin="round"/>
</g>
<g clip-path="url(#clip58_267_8922)">
<rect x="402.5" y="335.5" width="66" height="66" fill="#73787E" stroke="#CACCCD" stroke-linejoin="round"/>
<rect x="402.5" y="335.5" width="66" height="66" stroke="#CACCCD" stroke-linejoin="round"/>
</g>
<g clip-path="url(#clip59_267_8922)">
<rect x="469.5" y="335.5" width="66" height="66" fill="#73787E" stroke="#CACCCD" stroke-linejoin="round"/>
<rect x="469.5" y="335.5" width="66" height="66" stroke="#CACCCD" stroke-linejoin="round"/>
</g>
<g clip-path="url(#clip60_267_8922)">
<rect x="536.5" y="335.5" width="66" height="66" fill="#73787E" stroke="#CACCCD" stroke-linejoin="round"/>
<rect x="536.5" y="335.5" width="66" height="66" stroke="#CACCCD" stroke-linejoin="round"/>
</g>
<g clip-path="url(#clip61_267_8922)">
<rect x="603.5" y="335.5" width="66" height="66" fill="#73787E" stroke="#CACCCD" stroke-linejoin="round"/>
<rect x="603.5" y="335.5" width="66" height="66" stroke="#CACCCD" stroke-linejoin="round"/>
</g>
<g clip-path="url(#clip62_267_8922)">
<rect x="0.5" y="402.5" width="66" height="66" fill="#73787E" stroke="#CACCCD" stroke-linejoin="round"/>
<rect x="0.5" y="402.5" width="66" height="66" stroke="#CACCCD" stroke-linejoin="round"/>
</g>
<g clip-path="url(#clip63_267_8922)">
<rect x="67.5" y="402.5" width="66" height="66" fill="#73787E" stroke="#CACCCD" stroke-linejoin="round"/>
<rect x="67.5" y="402.5" width="66" height="66" stroke="#CACCCD" stroke-linejoin="round"/>
</g>
<g clip-path="url(#clip64_267_8922)">
<rect x="134.5" y="402.5" width="66" height="66" fill="#73787E" stroke="#CACCCD" stroke-linejoin="round"/>
<rect x="134.5" y="402.5" width="66" height="66" stroke="#CACCCD" stroke-linejoin="round"/>
</g>
<g clip-path="url(#clip65_267_8922)">
<rect x="201.5" y="402.5" width="66" height="66" fill="#73787E" stroke="#CACCCD" stroke-linejoin="round"/>
<rect x="201.5" y="402.5" width="66" height="66" stroke="#CACCCD" stroke-linejoin="round"/>
</g>
<g clip-path="url(#clip66_267_8922)">
<rect x="268.5" y="402.5" width="66" height="66" fill="#73787E" stroke="#CACCCD" stroke-linejoin="round"/>
<rect x="268.5" y="402.5" width="66" height="66" stroke="#CACCCD" stroke-linejoin="round"/>
</g>
<g clip-path="url(#clip67_267_8922)">
<rect x="335.5" y="402.5" width="66" height="66" fill="#73787E" stroke="#CACCCD" stroke-linejoin="round"/>
<rect x="335.5" y="402.5" width="66" height="66" stroke="#CACCCD" stroke-linejoin="round"/>
</g>
<g clip-path="url(#clip68_267_8922)">
<rect x="402.5" y="402.5" width="66" height="66" fill="#73787E" stroke="#CACCCD" stroke-linejoin="round"/>
<rect x="402.5" y="402.5" width="66" height="66" stroke="#CACCCD" stroke-linejoin="round"/>
</g>
<g clip-path="url(#clip69_267_8922)">
<rect x="469.5" y="402.5" width="66" height="66" fill="#73787E" stroke="#CACCCD" stroke-linejoin="round"/>
<rect x="469.5" y="402.5" width="66" height="66" stroke="#CACCCD" stroke-linejoin="round"/>
</g>
<g clip-path="url(#clip70_267_8922)">
<rect x="536.5" y="402.5" width="66" height="66" fill="#73787E" stroke="#CACCCD" stroke-linejoin="round"/>
<rect x="536.5" y="402.5" width="66" height="66" stroke="#CACCCD" stroke-linejoin="round"/>
</g>
<g clip-path="url(#clip71_267_8922)">
<rect x="603.5" y="402.5" width="66" height="66" fill="#73787E" stroke="#CACCCD" stroke-linejoin="round"/>
<rect x="603.5" y="402.5" width="66" height="66" stroke="#CACCCD" stroke-linejoin="round"/>
</g>
<g clip-path="url(#clip72_267_8922)">
<rect x="0.5" y="469.5" width="66" height="66" fill="#73787E" stroke="#CACCCD" stroke-linejoin="round"/>
<rect x="0.5" y="469.5" width="66" height="66" stroke="#CACCCD" stroke-linejoin="round"/>
</g>
<g clip-path="url(#clip73_267_8922)">
<rect x="67.5" y="469.5" width="66" height="66" fill="#73787E" stroke="#CACCCD" stroke-linejoin="round"/>
<rect x="67.5" y="469.5" width="66" height="66" stroke="#CACCCD" stroke-linejoin="round"/>
</g>
<g clip-path="url(#clip74_267_8922)">
<rect x="134.5" y="469.5" width="66" height="66" fill="#73787E" stroke="#CACCCD" stroke-linejoin="round"/>
<rect x="134.5" y="469.5" width="66" height="66" stroke="#CACCCD" stroke-linejoin="round"/>
</g>
<g clip-path="url(#clip75_267_8922)">
<rect x="201.5" y="469.5" width="66" height="66" fill="#73787E" stroke="#CACCCD" stroke-linejoin="round"/>
<rect x="201.5" y="469.5" width="66" height="66" stroke="#CACCCD" stroke-linejoin="round"/>
</g>
<g clip-path="url(#clip76_267_8922)">
<rect x="268.5" y="469.5" width="66" height="66" fill="#73787E" stroke="#CACCCD" stroke-linejoin="round"/>
<rect x="268.5" y="469.5" width="66" height="66" stroke="#CACCCD" stroke-linejoin="round"/>
</g>
<g clip-path="url(#clip77_267_8922)">
<rect x="335.5" y="469.5" width="66" height="66" fill="#73787E" stroke="#CACCCD" stroke-linejoin="round"/>
<rect x="335.5" y="469.5" width="66" height="66" stroke="#CACCCD" stroke-linejoin="round"/>
</g>
<g clip-path="url(#clip78_267_8922)">
<rect x="402.5" y="469.5" width="66" height="66" fill="#73787E" stroke="#CACCCD" stroke-linejoin="round"/>
<rect x="402.5" y="469.5" width="66" height="66" stroke="#CACCCD" stroke-linejoin="round"/>
</g>
<g clip-path="url(#clip79_267_8922)">
<rect x="469.5" y="469.5" width="66" height="66" fill="#73787E" stroke="#CACCCD" stroke-linejoin="round"/>
<rect x="469.5" y="469.5" width="66" height="66" stroke="#CACCCD" stroke-linejoin="round"/>
</g>
<g clip-path="url(#clip80_267_8922)">
<rect x="536.5" y="469.5" width="66" height="66" fill="#73787E" stroke="#CACCCD" stroke-linejoin="round"/>
<rect x="536.5" y="469.5" width="66" height="66" stroke="#CACCCD" stroke-linejoin="round"/>
</g>
<g clip-path="url(#clip81_267_8922)">
<rect x="603.5" y="469.5" width="66" height="66" fill="#73787E" stroke="#CACCCD" stroke-linejoin="round"/>
<rect x="603.5" y="469.5" width="66" height="66" stroke="#CACCCD" stroke-linejoin="round"/>
</g>
<g clip-path="url(#clip82_267_8922)">
<rect x="0.5" y="536.5" width="66" height="66" fill="#73787E" stroke="#CACCCD" stroke-linejoin="round"/>
<rect x="0.5" y="536.5" width="66" height="66" stroke="#CACCCD" stroke-linejoin="round"/>
</g>
<g clip-path="url(#clip83_267_8922)">
<rect x="67.5" y="536.5" width="66" height="66" fill="#73787E" stroke="#CACCCD" stroke-linejoin="round"/>
<rect x="67.5" y="536.5" width="66" height="66" stroke="#CACCCD" stroke-linejoin="round"/>
</g>
<g clip-path="url(#clip84_267_8922)">
<rect x="134.5" y="536.5" width="66" height="66" fill="#73787E" stroke="#CACCCD" stroke-linejoin="round"/>
<rect x="134.5" y="536.5" width="66" height="66" stroke="#CACCCD" stroke-linejoin="round"/>
</g>
<g clip-path="url(#clip85_267_8922)">
<rect x="201.5" y="536.5" width="66" height="66" fill="#73787E" stroke="#CACCCD" stroke-linejoin="round"/>
<rect x="201.5" y="536.5" width="66" height="66" stroke="#CACCCD" stroke-linejoin="round"/>
</g>
<g clip-path="url(#clip86_267_8922)">
<rect x="268.5" y="536.5" width="66" height="66" fill="#73787E" stroke="#CACCCD" stroke-linejoin="round"/>
<rect x="268.5" y="536.5" width="66" height="66" stroke="#CACCCD" stroke-linejoin="round"/>
</g>
<g clip-path="url(#clip87_267_8922)">
<rect x="335.5" y="536.5" width="66" height="66" fill="#73787E" stroke="#CACCCD" stroke-linejoin="round"/>
<rect x="335.5" y="536.5" width="66" height="66" stroke="#CACCCD" stroke-linejoin="round"/>
</g>
<g clip-path="url(#clip88_267_8922)">
<rect x="402.5" y="536.5" width="66" height="66" fill="#73787E" stroke="#CACCCD" stroke-linejoin="round"/>
<rect x="402.5" y="536.5" width="66" height="66" stroke="#CACCCD" stroke-linejoin="round"/>
</g>
<g clip-path="url(#clip89_267_8922)">
<rect x="469.5" y="536.5" width="66" height="66" fill="#73787E" stroke="#CACCCD" stroke-linejoin="round"/>
<rect x="469.5" y="536.5" width="66" height="66" stroke="#CACCCD" stroke-linejoin="round"/>
</g>
<g clip-path="url(#clip90_267_8922)">
<rect x="536.5" y="536.5" width="66" height="66" fill="#73787E" stroke="#CACCCD" stroke-linejoin="round"/>
<rect x="536.5" y="536.5" width="66" height="66" stroke="#CACCCD" stroke-linejoin="round"/>
</g>
<g clip-path="url(#clip91_267_8922)">
<rect x="603.5" y="536.5" width="66" height="66" fill="#73787E" stroke="#CACCCD" stroke-linejoin="round"/>
<rect x="603.5" y="536.5" width="66" height="66" stroke="#CACCCD" stroke-linejoin="round"/>
</g>
<g clip-path="url(#clip92_267_8922)">
<rect x="0.5" y="603.5" width="66" height="66" fill="#73787E" stroke="#CACCCD" stroke-linejoin="round"/>
<rect x="0.5" y="603.5" width="66" height="66" stroke="#CACCCD" stroke-linejoin="round"/>
</g>
<g clip-path="url(#clip93_267_8922)">
<rect x="67.5" y="603.5" width="66" height="66" fill="#73787E" stroke="#CACCCD" stroke-linejoin="round"/>
<rect x="67.5" y="603.5" width="66" height="66" stroke="#CACCCD" stroke-linejoin="round"/>
</g>
<g clip-path="url(#clip94_267_8922)">
<rect x="134.5" y="603.5" width="66" height="66" fill="#73787E" stroke="#CACCCD" stroke-linejoin="round"/>
<rect x="134.5" y="603.5" width="66" height="66" stroke="#CACCCD" stroke-linejoin="round"/>
</g>
<g clip-path="url(#clip95_267_8922)">
<rect x="201.5" y="603.5" width="66" height="66" fill="#73787E" stroke="#CACCCD" stroke-linejoin="round"/>
<rect x="201.5" y="603.5" width="66" height="66" stroke="#CACCCD" stroke-linejoin="round"/>
</g>
<g clip-path="url(#clip96_267_8922)">
<rect x="268.5" y="603.5" width="66" height="66" fill="#73787E" stroke="#CACCCD" stroke-linejoin="round"/>
<rect x="268.5" y="603.5" width="66" height="66" stroke="#CACCCD" stroke-linejoin="round"/>
</g>
<g clip-path="url(#clip97_267_8922)">
<rect x="335.5" y="603.5" width="66" height="66" fill="#73787E" stroke="#CACCCD" stroke-linejoin="round"/>
<rect x="335.5" y="603.5" width="66" height="66" stroke="#CACCCD" stroke-linejoin="round"/>
</g>
<g clip-path="url(#clip98_267_8922)">
<rect x="402.5" y="603.5" width="66" height="66" fill="#73787E" stroke="#CACCCD" stroke-linejoin="round"/>
<rect x="402.5" y="603.5" width="66" height="66" stroke="#CACCCD" stroke-linejoin="round"/>
</g>
<g clip-path="url(#clip99_267_8922)">
<rect x="469.5" y="603.5" width="66" height="66" fill="#73787E" stroke="#CACCCD" stroke-linejoin="round"/>
<rect x="469.5" y="603.5" width="66" height="66" stroke="#CACCCD" stroke-linejoin="round"/>
</g>
<g clip-path="url(#clip100_267_8922)">
<rect x="536.5" y="603.5" width="66" height="66" fill="#73787E" stroke="#CACCCD" stroke-linejoin="round"/>
<rect x="536.5" y="603.5" width="66" height="66" stroke="#CACCCD" stroke-linejoin="round"/>
</g>
<g clip-path="url(#clip101_267_8922)">
<rect x="603.5" y="603.5" width="66" height="66" fill="#73787E" stroke="#CACCCD" stroke-linejoin="round"/>
<rect x="603.5" y="603.5" width="66" height="66" stroke="#CACCCD" stroke-linejoin="round"/>
</g>
<g style="mix-blend-mode:overlay" opacity="0.1">
<rect x="1" y="1" width="65" height="65" fill="white"/>
</g>
<g style="mix-blend-mode:overlay" opacity="0.1">
<rect x="135" y="135" width="65" height="65" fill="white"/>
</g>
<g style="mix-blend-mode:overlay" opacity="0.1">
<rect x="336" y="135" width="65" height="65" fill="white"/>
</g>
<g style="mix-blend-mode:overlay" opacity="0.1">
<rect x="202" y="336" width="65" height="65" fill="white"/>
</g>
<g style="mix-blend-mode:overlay" opacity="0.1">
<rect x="68" y="604" width="65" height="65" fill="white"/>
</g>
<g style="mix-blend-mode:overlay" opacity="0.1">
<rect x="135" y="537" width="65" height="65" fill="white"/>
</g>
<g style="mix-blend-mode:overlay" opacity="0.07">
<rect x="470" y="604" width="65" height="65" fill="black"/>
</g>
<g style="mix-blend-mode:overlay" opacity="0.07">
<rect x="336" y="470" width="65" height="65" fill="black"/>
</g>
<g style="mix-blend-mode:overlay" opacity="0.07">
<rect x="537" y="202" width="65" height="65" fill="black"/>
</g>
<g style="mix-blend-mode:overlay" opacity="0.07">
<rect x="336" y="1" width="65" height="65" fill="black"/>
</g>
<g style="mix-blend-mode:overlay" opacity="0.07">
<rect x="68" y="269" width="65" height="65" fill="black"/>
</g>
<g style="mix-blend-mode:overlay" opacity="0.1">
<rect x="537" y="403" width="65" height="65" fill="white"/>
</g>
<g style="mix-blend-mode:overlay" opacity="0.1">
<rect x="604" y="269" width="65" height="65" fill="white"/>
</g>
<rect x="-1" y="-1" width="672" height="676" stroke="black" stroke-width="2" stroke-linejoin="round"/>
</g>
<g opacity="0.5">
<ellipse cx="335" cy="303" rx="420" ry="300" fill="url(#paint0_radial_267_8922)" style="mix-blend-mode:soft-light"/>
</g>
</g>
<defs>
<radialGradient id="paint0_radial_267_8922" cx="0" cy="0" r="1" gradientUnits="userSpaceOnUse" gradientTransform="translate(335 303) rotate(90) scale(300 420)">
<stop stop-color="white"/>
<stop offset="1" stop-color="white" stop-opacity="0"/>
</radialGradient>
<clipPath id="clip0_267_8922">
<rect width="670" height="669" fill="white"/>
</clipPath>
<clipPath id="clip1_267_8922">
<rect width="674" height="678" fill="white" transform="translate(-2 -2)"/>
</clipPath>
<clipPath id="clip2_267_8922">
<rect width="67" height="67" fill="white"/>
</clipPath>
<clipPath id="clip3_267_8922">
<rect width="67" height="67" fill="white" transform="translate(67)"/>
</clipPath>
<clipPath id="clip4_267_8922">
<rect width="67" height="67" fill="white" transform="translate(134)"/>
</clipPath>
<clipPath id="clip5_267_8922">
<rect width="67" height="67" fill="white" transform="translate(201)"/>
</clipPath>
<clipPath id="clip6_267_8922">
<rect width="67" height="67" fill="white" transform="translate(268)"/>
</clipPath>
<clipPath id="clip7_267_8922">
<rect width="67" height="67" fill="white" transform="translate(335)"/>
</clipPath>
<clipPath id="clip8_267_8922">
<rect width="67" height="67" fill="white" transform="translate(402)"/>
</clipPath>
<clipPath id="clip9_267_8922">
<rect width="67" height="67" fill="white" transform="translate(469)"/>
</clipPath>
<clipPath id="clip10_267_8922">
<rect width="67" height="67" fill="white" transform="translate(536)"/>
</clipPath>
<clipPath id="clip11_267_8922">
<rect width="67" height="67" fill="white" transform="translate(603)"/>
</clipPath>
<clipPath id="clip12_267_8922">
<rect width="67" height="67" fill="white" transform="translate(0 67)"/>
</clipPath>
<clipPath id="clip13_267_8922">
<rect width="67" height="67" fill="white" transform="translate(67 67)"/>
</clipPath>
<clipPath id="clip14_267_8922">
<rect width="67" height="67" fill="white" transform="translate(134 67)"/>
</clipPath>
<clipPath id="clip15_267_8922">
<rect width="67" height="67" fill="white" transform="translate(201 67)"/>
</clipPath>
<clipPath id="clip16_267_8922">
<rect width="67" height="67" fill="white" transform="translate(268 67)"/>
</clipPath>
<clipPath id="clip17_267_8922">
<rect width="67" height="67" fill="white" transform="translate(335 67)"/>
</clipPath>
<clipPath id="clip18_267_8922">
<rect width="67" height="67" fill="white" transform="translate(402 67)"/>
</clipPath>
<clipPath id="clip19_267_8922">
<rect width="67" height="67" fill="white" transform="translate(469 67)"/>
</clipPath>
<clipPath id="clip20_267_8922">
<rect width="67" height="67" fill="white" transform="translate(536 67)"/>
</clipPath>
<clipPath id="clip21_267_8922">
<rect width="67" height="67" fill="white" transform="translate(603 67)"/>
</clipPath>
<clipPath id="clip22_267_8922">
<rect width="67" height="67" fill="white" transform="translate(0 134)"/>
</clipPath>
<clipPath id="clip23_267_8922">
<rect width="67" height="67" fill="white" transform="translate(67 134)"/>
</clipPath>
<clipPath id="clip24_267_8922">
<rect width="67" height="67" fill="white" transform="translate(134 134)"/>
</clipPath>
<clipPath id="clip25_267_8922">
<rect width="67" height="67" fill="white" transform="translate(201 134)"/>
</clipPath>
<clipPath id="clip26_267_8922">
<rect width="67" height="67" fill="white" transform="translate(268 134)"/>
</clipPath>
<clipPath id="clip27_267_8922">
<rect width="67" height="67" fill="white" transform="translate(335 134)"/>
</clipPath>
<clipPath id="clip28_267_8922">
<rect width="67" height="67" fill="white" transform="translate(402 134)"/>
</clipPath>
<clipPath id="clip29_267_8922">
<rect width="67" height="67" fill="white" transform="translate(469 134)"/>
</clipPath>
<clipPath id="clip30_267_8922">
<rect width="67" height="67" fill="white" transform="translate(536 134)"/>
</clipPath>
<clipPath id="clip31_267_8922">
<rect width="67" height="67" fill="white" transform="translate(603 134)"/>
</clipPath>
<clipPath id="clip32_267_8922">
<rect width="67" height="67" fill="white" transform="translate(0 201)"/>
</clipPath>
<clipPath id="clip33_267_8922">
<rect width="67" height="67" fill="white" transform="translate(67 201)"/>
</clipPath>
<clipPath id="clip34_267_8922">
<rect width="67" height="67" fill="white" transform="translate(134 201)"/>
</clipPath>
<clipPath id="clip35_267_8922">
<rect width="67" height="67" fill="white" transform="translate(201 201)"/>
</clipPath>
<clipPath id="clip36_267_8922">
<rect width="67" height="67" fill="white" transform="translate(268 201)"/>
</clipPath>
<clipPath id="clip37_267_8922">
<rect width="67" height="67" fill="white" transform="translate(335 201)"/>
</clipPath>
<clipPath id="clip38_267_8922">
<rect width="67" height="67" fill="white" transform="translate(402 201)"/>
</clipPath>
<clipPath id="clip39_267_8922">
<rect width="67" height="67" fill="white" transform="translate(469 201)"/>
</clipPath>
<clipPath id="clip40_267_8922">
<rect width="67" height="67" fill="white" transform="translate(536 201)"/>
</clipPath>
<clipPath id="clip41_267_8922">
<rect width="67" height="67" fill="white" transform="translate(603 201)"/>
</clipPath>
<clipPath id="clip42_267_8922">
<rect width="67" height="67" fill="white" transform="translate(0 268)"/>
</clipPath>
<clipPath id="clip43_267_8922">
<rect width="67" height="67" fill="white" transform="translate(67 268)"/>
</clipPath>
<clipPath id="clip44_267_8922">
<rect width="67" height="67" fill="white" transform="translate(134 268)"/>
</clipPath>
<clipPath id="clip45_267_8922">
<rect width="67" height="67" fill="white" transform="translate(201 268)"/>
</clipPath>
<clipPath id="clip46_267_8922">
<rect width="67" height="67" fill="white" transform="translate(268 268)"/>
</clipPath>
<clipPath id="clip47_267_8922">
<rect width="67" height="67" fill="white" transform="translate(335 268)"/>
</clipPath>
<clipPath id="clip48_267_8922">
<rect width="67" height="67" fill="white" transform="translate(402 268)"/>
</clipPath>
<clipPath id="clip49_267_8922">
<rect width="67" height="67" fill="white" transform="translate(469 268)"/>
</clipPath>
<clipPath id="clip50_267_8922">
<rect width="67" height="67" fill="white" transform="translate(536 268)"/>
</clipPath>
<clipPath id="clip51_267_8922">
<rect width="67" height="67" fill="white" transform="translate(603 268)"/>
</clipPath>
<clipPath id="clip52_267_8922">
<rect width="67" height="67" fill="white" transform="translate(0 335)"/>
</clipPath>
<clipPath id="clip53_267_8922">
<rect width="67" height="67" fill="white" transform="translate(67 335)"/>
</clipPath>
<clipPath id="clip54_267_8922">
<rect width="67" height="67" fill="white" transform="translate(134 335)"/>
</clipPath>
<clipPath id="clip55_267_8922">
<rect width="67" height="67" fill="white" transform="translate(201 335)"/>
</clipPath>
<clipPath id="clip56_267_8922">
<rect width="67" height="67" fill="white" transform="translate(268 335)"/>
</clipPath>
<clipPath id="clip57_267_8922">
<rect width="67" height="67" fill="white" transform="translate(335 335)"/>
</clipPath>
<clipPath id="clip58_267_8922">
<rect width="67" height="67" fill="white" transform="translate(402 335)"/>
</clipPath>
<clipPath id="clip59_267_8922">
<rect width="67" height="67" fill="white" transform="translate(469 335)"/>
</clipPath>
<clipPath id="clip60_267_8922">
<rect width="67" height="67" fill="white" transform="translate(536 335)"/>
</clipPath>
<clipPath id="clip61_267_8922">
<rect width="67" height="67" fill="white" transform="translate(603 335)"/>
</clipPath>
<clipPath id="clip62_267_8922">
<rect width="67" height="67" fill="white" transform="translate(0 402)"/>
</clipPath>
<clipPath id="clip63_267_8922">
<rect width="67" height="67" fill="white" transform="translate(67 402)"/>
</clipPath>
<clipPath id="clip64_267_8922">
<rect width="67" height="67" fill="white" transform="translate(134 402)"/>
</clipPath>
<clipPath id="clip65_267_8922">
<rect width="67" height="67" fill="white" transform="translate(201 402)"/>
</clipPath>
<clipPath id="clip66_267_8922">
<rect width="67" height="67" fill="white" transform="translate(268 402)"/>
</clipPath>
<clipPath id="clip67_267_8922">
<rect width="67" height="67" fill="white" transform="translate(335 402)"/>
</clipPath>
<clipPath id="clip68_267_8922">
<rect width="67" height="67" fill="white" transform="translate(402 402)"/>
</clipPath>
<clipPath id="clip69_267_8922">
<rect width="67" height="67" fill="white" transform="translate(469 402)"/>
</clipPath>
<clipPath id="clip70_267_8922">
<rect width="67" height="67" fill="white" transform="translate(536 402)"/>
</clipPath>
<clipPath id="clip71_267_8922">
<rect width="67" height="67" fill="white" transform="translate(603 402)"/>
</clipPath>
<clipPath id="clip72_267_8922">
<rect width="67" height="67" fill="white" transform="translate(0 469)"/>
</clipPath>
<clipPath id="clip73_267_8922">
<rect width="67" height="67" fill="white" transform="translate(67 469)"/>
</clipPath>
<clipPath id="clip74_267_8922">
<rect width="67" height="67" fill="white" transform="translate(134 469)"/>
</clipPath>
<clipPath id="clip75_267_8922">
<rect width="67" height="67" fill="white" transform="translate(201 469)"/>
</clipPath>
<clipPath id="clip76_267_8922">
<rect width="67" height="67" fill="white" transform="translate(268 469)"/>
</clipPath>
<clipPath id="clip77_267_8922">
<rect width="67" height="67" fill="white" transform="translate(335 469)"/>
</clipPath>
<clipPath id="clip78_267_8922">
<rect width="67" height="67" fill="white" transform="translate(402 469)"/>
</clipPath>
<clipPath id="clip79_267_8922">
<rect width="67" height="67" fill="white" transform="translate(469 469)"/>
</clipPath>
<clipPath id="clip80_267_8922">
<rect width="67" height="67" fill="white" transform="translate(536 469)"/>
</clipPath>
<clipPath id="clip81_267_8922">
<rect width="67" height="67" fill="white" transform="translate(603 469)"/>
</clipPath>
<clipPath id="clip82_267_8922">
<rect width="67" height="67" fill="white" transform="translate(0 536)"/>
</clipPath>
<clipPath id="clip83_267_8922">
<rect width="67" height="67" fill="white" transform="translate(67 536)"/>
</clipPath>
<clipPath id="clip84_267_8922">
<rect width="67" height="67" fill="white" transform="translate(134 536)"/>
</clipPath>
<clipPath id="clip85_267_8922">
<rect width="67" height="67" fill="white" transform="translate(201 536)"/>
</clipPath>
<clipPath id="clip86_267_8922">
<rect width="67" height="67" fill="white" transform="translate(268 536)"/>
</clipPath>
<clipPath id="clip87_267_8922">
<rect width="67" height="67" fill="white" transform="translate(335 536)"/>
</clipPath>
<clipPath id="clip88_267_8922">
<rect width="67" height="67" fill="white" transform="translate(402 536)"/>
</clipPath>
<clipPath id="clip89_267_8922">
<rect width="67" height="67" fill="white" transform="translate(469 536)"/>
</clipPath>
<clipPath id="clip90_267_8922">
<rect width="67" height="67" fill="white" transform="translate(536 536)"/>
</clipPath>
<clipPath id="clip91_267_8922">
<rect width="67" height="67" fill="white" transform="translate(603 536)"/>
</clipPath>
<clipPath id="clip92_267_8922">
<rect width="67" height="67" fill="white" transform="translate(0 603)"/>
</clipPath>
<clipPath id="clip93_267_8922">
<rect width="67" height="67" fill="white" transform="translate(67 603)"/>
</clipPath>
<clipPath id="clip94_267_8922">
<rect width="67" height="67" fill="white" transform="translate(134 603)"/>
</clipPath>
<clipPath id="clip95_267_8922">
<rect width="67" height="67" fill="white" transform="translate(201 603)"/>
</clipPath>
<clipPath id="clip96_267_8922">
<rect width="67" height="67" fill="white" transform="translate(268 603)"/>
</clipPath>
<clipPath id="clip97_267_8922">
<rect width="67" height="67" fill="white" transform="translate(335 603)"/>
</clipPath>
<clipPath id="clip98_267_8922">
<rect width="67" height="67" fill="white" transform="translate(402 603)"/>
</clipPath>
<clipPath id="clip99_267_8922">
<rect width="67" height="67" fill="white" transform="translate(469 603)"/>
</clipPath>
<clipPath id="clip100_267_8922">
<rect width="67" height="67" fill="white" transform="translate(536 603)"/>
</clipPath>
<clipPath id="clip101_267_8922">
<rect width="67" height="67" fill="white" transform="translate(603 603)"/>
</clipPath>
</defs>
</svg>
