<svg xmlns="http://www.w3.org/2000/svg" viewBox="0 0 601.26 564.61"><defs><style>.cls-1{fill:#f2f2f4;}</style></defs><g id="Camada_2" data-name="Camada 2"><g id="Camada_1-2" data-name="Camada 1"><path class="cls-1" d="M585,380.37l0,39.5,0,39.5-9.7,6.68c-5.34,3.67-18.71,13-29.71,20.7-39.95,28-66.08,45.53-70,46.89-2.71.94-12.68,1.68-31,2.3-14.85.49-37.35,1.42-50,2.06-14.73.75-30.73.88-44.5.38-11.82-.44-26.61-.84-32.85-.9l-11.35-.11-2.65-3.19c-4.27-5.13-14.7-26-18.49-36.93-1.93-5.57-6.3-16.75-9.71-24.85-5.13-12.16-6.76-15-9.33-16.62-4.58-2.8-6.6-2.43-17.28,3.12s-18.06,10.58-30.73,20.93l-8.46,6.92L201,483.31a245.2,245.2,0,0,0-37.38-12.5c-6.67-1.66-13.58-3.49-15.36-4.06-3.62-1.15-3,.34-11.3-29.34-2.28-8.24-6.08-20.48-8.43-27.22s-4-12.49-3.73-12.78a5.51,5.51,0,0,1,2.8-.54c1.25,0,12.09-2.44,24.09-5.42s24.51-5.93,27.81-6.55c7.59-1.43,10-2.63,11.39-5.69s1.32-20.41-.21-44.26l-1.18-18.41,7-3.05c10.68-4.65,43.49-21,56.58-28.2,6.41-3.53,12.11-6.42,12.65-6.42,1.36,0,23.41,26.46,31.71,38.05,3.72,5.2,7.83,10.58,9.13,12l2.36,2.52-7.61,10c-4.18,5.49-11.27,14.48-15.76,20-10.65,13.05-12.45,15.71-13.2,19.44-1.31,6.58,5.66,9.13,13.71,5,4.9-2.5,17.2-17.65,30.39-37.46,21.12-31.71,24.74-41.41,15.82-42.3-2.62-.27-3.86.62-9.44,6.73l-6.43,7-5.33-9.42a205.11,205.11,0,0,0-12.82-19.23c-4.12-5.4-11.25-14.83-15.85-20.95s-9.08-11.41-10-11.75c-4.74-1.82-8.61-.45-25.63,9.06-9.53,5.32-26.54,14.1-37.82,19.52C174.89,303.45,175.7,303,173.55,307c-1.87,3.49-1.9,4.43-.74,21.5.67,9.82,1.5,23.14,1.85,29.6l.65,11.75h-3.26c-1.79,0-12.45,2-23.69,4.49s-24.45,4.95-29.36,5.51c-11,1.25-13.45,2.31-15.58,6.81-1.61,3.39-1.59,3.72.59,8.61,6.33,14.25,9.37,22.76,14.51,40.58,9.77,33.86,10.61,36.43,13.14,39.77,3.82,5.05,5.73,5.89,24.4,10.74,18.84,4.89,36.33,11,44.67,15.6,3.23,1.79,6.72,2.89,9.1,2.89,4.21,0,3.7.34,23.36-15.24,6.43-5.09,13.92-10.5,16.65-12l5-2.75,9.1,18.3c5,10.06,9.1,18.83,9.1,19.48s-1.91,2.94-4.25,5.1-7.85,9.16-12.25,15.56l-8,11.65-9.5-.68c-14.06-1-60.29-.68-77.61.55-8.32.6-15.87.79-16.79.44s-6-7.22-11.38-15.27c-25.54-38.47-50.49-62.58-78.77-76.15L44.39,449,42.62,435.2c-4.4-34.27-10.56-59.35-19.24-78.25L20,349.53l2.21-2.35c2.4-2.56,30.35-21.61,40.82-27.82,3.57-2.13,16.18-9.78,28-17,30-18.37,48.94-29.11,57.84-32.84C159.53,265,161,262.66,161,250c0-9.14-1.24-27.7-2.56-38.71l-.62-5.12,12.35-4.53c33.63-12.35,59.59-19.25,94.65-25.13,26.76-4.5,32.83-7.59,23.7-12.07-3.36-1.66-6.07-2-17-1.95-21.47,0-48.72,4.66-82.22,14-31.26,8.68-44.84,13.2-48.19,16-4.74,4-5,6.85-3,28.5,1,10.69,1.85,21.72,1.87,24.51l0,5.08-4.95,2.32c-2.72,1.27-10.93,5.78-18.25,10l-13.29,7.71L99.92,264c-2-3.64-9.13-15.61-15.91-26.61l-17.24-28c-4.27-7-4.84-8.49-4.33-11.74.93-6,25.75-61.78,28.06-63.1,2.84-1.63,23.58-1.26,37.64.66,15.61,2.14,54.3,5,59.65,4.39a13.64,13.64,0,0,0,6.39-2.34c4.33-3.86,5.1-7.81,5.73-29.37l.59-20.5,7-4.65C211.35,80.16,221,74.5,229,70.13,271.12,47.05,294,33.22,308.42,22l7.92-6.12,9.58,5.15c15.13,8.13,39.79,23,49.13,29.7,4.7,3.35,17.18,13.27,27.74,22s20.1,16.45,21.2,17a4.14,4.14,0,0,1,2,3.54c0,4.08-4.8,27.61-10.5,51.47-6.81,28.48-8.59,38.16-8.68,47-.11,12.13,3.79,12.14,8.47,0,3.35-8.68,12.32-38.27,16.24-53.56,1.54-6.05,2.93-11.16,3.07-11.35s6,3.22,13.08,7.58c16.15,10,31,18.07,58.82,32.08,12.1,6.09,24.07,12.39,26.59,14l4.59,2.93.67,10.38c.37,5.7,1.83,22.91,3.25,38.24s2.29,29.38,1.95,31.23c-.5,2.64-2.59,5.06-9.84,11.36-8.56,7.44-39,31.11-39.41,30.67-.11-.1.91-5.8,2.25-12.66,3-15.15,3-17.41.43-24.3-5.21-13.91-28.44-40-37.7-42.31-2.43-.62-4.23.73-4.26,3.18,0,1.36,4.41,8.45,15.27,24.43,4.83,7.11,9.65,14.91,10.73,17.33l1.94,4.4-2.48,10.9c-9.14,40.19-10.2,87.36-2.87,127.61,1.13,6.2,2.25,9.42,3.9,11.21,4.59,4.95,11.14,4.25,13.51-1.46.91-2.21.72-5.4-.92-15.62-1.13-7.06-2.57-18.47-3.2-25.34-1.26-13.75-.74-54.58.71-56,.9-.88,25.71,9,36.89,14.7,7.73,3.94,29.55,18.6,40.68,27.34,4.77,3.75,10.28,7.86,12.24,9.12ZM436.25,417.42a5.64,5.64,0,0,0-1.82-4.22c-4.17-3.05-9.44-1.23-27.93,9.67-19.39,11.43-38.66,21.35-39.39,20.27-.33-.5-4.95-7.42-10.25-15.39-11.28-16.93-18.24-24.91-25.28-28.95-6.08-3.48-6.95-3.56-9.69-.82-4,4-1.11,12.39,8.12,23.89,2.87,3.57,9.63,13,15,21,11.46,17,14.66,19.55,23.18,18.73,7.09-.68,20.8-7.87,42-22C431.86,425.1,436.25,421.37,436.25,417.42ZM397.93,275.23c3.31-4.21,2.67-8.82-2.81-20-16.49-33.72-34.88-52.65-42.87-44.12-3.45,3.68-2.81,6.18,3.3,12.82,7.34,8,13.6,17.72,22.39,34.84C387.49,277.34,392.82,281.73,397.93,275.23Z"/><path d="M601.25,420.15c.07,33.14-.22,45.81-1.09,47.43-.65,1.21-4.22,4.34-7.92,6.95S577.18,485.18,567,492.41c-46.41,33-78.66,55-83.61,57.06-5.34,2.25-23.07,3.32-81.89,4.94-41.76,1.15-59.41,1.29-66,.52-4.95-.57-14.76-1-21.8-1-9.31,0-13.58-.41-15.65-1.48-3.86-2-9.14-8.35-13.08-15.74l-3.26-6.11-2.11,2.82c-1.15,1.55-5.92,8.22-10.6,14.82s-9.69,12.88-11.15,14c-2.56,1.89-3.4,1.92-26,.79-22.18-1.11-73.29-.16-82.5,1.53a29.69,29.69,0,0,1-8.84-.6c-7.57-1.57-10.65-4.76-24.32-25.21-6-9-13.59-19.67-16.89-23.79-17-21.3-40.52-39.56-60.36-46.94-7.37-2.73-11.6-7-13.34-13.44a197.18,197.18,0,0,1-3-19.62c-3.2-28.05-9.82-54.29-18.13-71.88-7-14.84-5.91-22.1,4.78-31.6C16,325.39,44,306.88,70.26,291l20.5-12.37L77,255.94c-7.55-12.48-16.79-27.38-20.53-33.13C48,209.67,46.05,205.5,46,199.87c0-6.8,1.09-10,15.66-44,9.41-22,14.25-32.15,16.06-33.67,6.57-5.52,25.46-6.75,52.28-3.4,19,2.37,51.75,4.63,52.74,3.63.4-.4.95-9.58,1.23-20.39.46-18.14.67-20,2.74-23.26,3-4.88,10.06-9.62,34.77-23.45C276,24.86,283.19,20.54,297.75,9.73c5.36-4,10.87-7.82,12.25-8.54,6.69-3.5,15.17,0,48,19.88,21.62,13.09,31.57,20.29,54.54,39.47,10.48,8.75,20.72,16.94,22.77,18.21a16,16,0,0,1,4.7,4.14c1.54,2.88,1.19,9.46-1.22,22.41-1.71,9.24-1.93,12-1,12.35.69.23,25,12.3,54.1,26.83,56.53,28.26,59.32,30,60.43,37.58.91,6.16,5.94,64.25,6.39,73.81.67,14-.43,17.06-9.1,25.5-6.57,6.39-17,15.07-33.59,27.82-3.44,2.65-6,5.06-5.74,5.35s5.5,2.67,11.58,5.29a209.36,209.36,0,0,1,20.32,10.32c17.86,10.7,54.58,37.65,57.23,42C601,374.64,601.16,379.56,601.25,420.15Zm-16.31-.28,0-39.5-3.55-2.31c-2-1.26-7.47-5.37-12.24-9.12-11.13-8.74-32.95-23.4-40.68-27.34-11.18-5.69-36-15.58-36.89-14.7-1.45,1.39-2,42.22-.71,56,.63,6.87,2.07,18.28,3.2,25.34,1.64,10.22,1.83,13.41.92,15.62-2.37,5.71-8.92,6.41-13.51,1.46-1.65-1.79-2.77-5-3.9-11.21-7.33-40.25-6.27-87.42,2.87-127.61l2.48-10.9-1.94-4.4c-1.08-2.42-5.9-10.22-10.73-17.33-10.86-16-15.3-23.07-15.27-24.43,0-2.45,1.83-3.8,4.26-3.18,9.26,2.32,32.49,28.4,37.7,42.31,2.58,6.89,2.54,9.15-.43,24.3-1.34,6.86-2.36,12.56-2.25,12.66.44.44,30.85-23.23,39.41-30.67,7.25-6.3,9.34-8.72,9.84-11.36.34-1.85-.53-15.9-1.95-31.23s-2.88-32.54-3.25-38.24l-.67-10.38-4.59-2.93c-2.52-1.62-14.49-7.92-26.59-14-27.84-14-42.67-22.09-58.82-32.08-7.05-4.36-12.93-7.77-13.08-7.58s-1.53,5.3-3.07,11.35c-3.92,15.29-12.89,44.88-16.24,53.56-4.68,12.13-8.58,12.12-8.47,0,.09-8.89,1.87-18.57,8.68-47C421.2,121,426,97.48,426,93.4a4.14,4.14,0,0,0-2-3.54c-1.1-.59-10.65-8.26-21.2-17s-23-18.7-27.74-22c-9.34-6.66-34-21.57-49.13-29.7l-9.58-5.15L308.42,22C294,33.22,271.12,47.05,229,70.13c-8,4.37-17.65,10-21.5,12.59l-7,4.65-.59,20.5c-.63,21.56-1.4,25.51-5.73,29.37a13.64,13.64,0,0,1-6.39,2.34c-5.35.6-44-2.25-59.65-4.39-14.06-1.92-34.8-2.29-37.64-.66-2.31,1.32-27.13,57.12-28.06,63.1-.51,3.25.06,4.79,4.33,11.74l17.24,28c6.78,11,13.94,23,15.91,26.61l3.59,6.6,13.29-7.71c7.32-4.24,15.53-8.75,18.25-10l4.95-2.32,0-5.08c0-2.79-.86-13.82-1.87-24.51-2-21.65-1.74-24.51,3-28.5,3.35-2.81,16.93-7.33,48.19-16,33.5-9.31,60.75-13.94,82.22-14,10.93,0,13.64.29,17,1.95,9.13,4.48,3.06,7.57-23.7,12.07-35.06,5.88-61,12.78-94.65,25.13l-12.35,4.53.62,5.12c1.32,11,2.55,29.57,2.56,38.71,0,12.69-1.45,15.06-12.14,19.53C139.94,273.23,121,284,91,302.34c-11.82,7.24-24.43,14.89-28,17-10.47,6.21-38.42,25.26-40.82,27.82L20,349.53,23.38,357c8.68,18.9,14.84,44,19.24,78.25L44.39,449l10.06,4.82c28.28,13.57,53.23,37.68,78.77,76.15,5.34,8,10.46,14.92,11.38,15.27s8.47.16,16.79-.44c17.32-1.23,63.55-1.56,77.61-.55l9.5.68,8-11.65c4.4-6.4,9.91-13.41,12.25-15.56s4.25-4.45,4.25-5.1-4.1-9.42-9.1-19.48l-9.1-18.3-5,2.75c-2.73,1.51-10.22,6.92-16.65,12-19.66,15.58-19.15,15.24-23.36,15.24-2.38,0-5.87-1.1-9.1-2.89-8.34-4.6-25.83-10.71-44.67-15.6-18.67-4.85-20.58-5.69-24.4-10.74-2.53-3.34-3.37-5.91-13.14-39.77-5.14-17.82-8.18-26.33-14.51-40.58-2.18-4.89-2.2-5.22-.59-8.61,2.13-4.5,4.57-5.56,15.58-6.81,4.91-.56,18.12-3,29.36-5.51s21.9-4.49,23.69-4.49h3.26l-.65-11.75c-.35-6.46-1.18-19.78-1.85-29.6-1.16-17.07-1.13-18,.74-21.5,2.15-4,1.34-3.57,35.45-19.95,11.28-5.42,28.29-14.2,37.82-19.52,17-9.51,20.89-10.88,25.63-9.06.88.34,5.37,5.63,10,11.75s11.73,15.55,15.85,20.95a205.11,205.11,0,0,1,12.82,19.23l5.33,9.42,6.43-7c5.58-6.11,6.82-7,9.44-6.73,8.92.89,5.3,10.59-15.82,42.3-13.19,19.81-25.49,35-30.39,37.46-8.05,4.11-15,1.56-13.71-5,.75-3.73,2.55-6.39,13.2-19.44,4.49-5.5,11.58-14.49,15.76-20l7.61-10-2.36-2.52c-1.3-1.39-5.41-6.77-9.13-12-8.3-11.59-30.35-38.05-31.71-38.05-.54,0-6.24,2.89-12.65,6.42-13.09,7.19-45.9,23.55-56.58,28.2l-7,3.05L190.68,335c1.53,23.85,1.61,41.18.21,44.26s-3.8,4.26-11.39,5.69c-3.3.62-15.81,3.57-27.81,6.55s-22.84,5.42-24.09,5.42a5.51,5.51,0,0,0-2.8.54c-.3.29,1.39,6,3.73,12.78s6.15,19,8.43,27.22c8.25,29.68,7.68,28.19,11.3,29.34,1.78.57,8.69,2.4,15.36,4.06A245.2,245.2,0,0,1,201,483.31l8.15,3.44,8.46-6.92c12.67-10.35,20-15.36,30.73-20.93s12.7-5.92,17.28-3.12c2.57,1.57,4.2,4.46,9.33,16.62,3.41,8.1,7.78,19.28,9.71,24.85,3.79,11,14.22,31.8,18.49,36.93l2.65,3.19,11.35.11c6.24.06,21,.46,32.85.9,13.77.5,29.77.37,44.5-.38,12.65-.64,35.15-1.57,50-2.06,18.32-.62,28.29-1.36,31-2.3,3.92-1.36,30.05-18.87,70-46.89,11-7.71,24.37-17,29.71-20.7l9.7-6.68Z"/><path d="M434.43,413.2a5.64,5.64,0,0,1,1.82,4.22c0,3.95-4.39,7.68-26.09,22.19-21.15,14.14-34.86,21.33-42,22-8.52.82-11.72-1.76-23.18-18.73-5.39-8-12.15-17.45-15-21-9.23-11.5-12.09-19.92-8.12-23.89,2.74-2.74,3.61-2.66,9.69.82,7,4,14,12,25.28,28.95,5.3,8,9.92,14.89,10.25,15.39.73,1.08,20-8.84,39.39-20.27C425,412,430.26,410.15,434.43,413.2Z"/><path d="M395.12,255.22c5.48,11.19,6.12,15.8,2.81,20-5.11,6.5-10.44,2.11-20-16.47-8.79-17.12-15.05-26.85-22.39-34.84-6.11-6.64-6.75-9.14-3.3-12.82C360.24,202.57,378.63,221.5,395.12,255.22Z"/></g></g></svg>