<?xml version="1.0" encoding="UTF-8"?>
<svg id="Layer_2" data-name="Layer 2" xmlns="http://www.w3.org/2000/svg" viewBox="0 0 92 92">
  <defs>
    <style>
      .cls-1 {
        fill: #a13167;
      }
    </style>
  </defs>
  <g id="Layer_1-2" data-name="Layer 1">
    <g>
      <path class="cls-1" d="M46,0C20.6,0,0,20.6,0,46s20.6,46,46,46,46-20.6,46-46S71.4,0,46,0ZM46,82c-19.88,0-36-16.12-36-36S26.12,10,46,10s36,16.12,36,36-16.11,36-36,36Z"/>
      <circle class="cls-1" cx="32.5" cy="34.86" r="6.67"/>
      <circle class="cls-1" cx="59.5" cy="34.86" r="6.67"/>
      <path class="cls-1" d="M46,49.22c-9.4,0-17.96,4.44-22.33,11.6-1.3,2.12-.63,4.89,1.49,6.19,2.12,1.3,4.89.63,6.19-1.49,2.71-4.43,8.46-7.29,14.65-7.29s11.94,2.86,14.65,7.29c.85,1.39,2.33,2.15,3.84,2.15.8,0,1.61-.21,2.34-.66,2.12-1.3,2.79-4.07,1.49-6.19-4.38-7.15-12.93-11.6-22.33-11.6Z"/>
    </g>
  </g>
</svg>