<svg width="106" height="106" viewBox="0 0 106 106" fill="none" xmlns="http://www.w3.org/2000/svg">
<g clip-path="url(#clip0_337_22015)">
<g clip-path="url(#clip1_337_22015)">
<circle cx="53" cy="53" r="52" fill="#EBEBEB" stroke="black" stroke-width="2"/>
<mask id="mask0_337_22015" style="mask-type:alpha" maskUnits="userSpaceOnUse" x="2" y="2" width="102" height="102">
<circle cx="53" cy="53" r="51" fill="#EBEBEB"/>
</mask>
<g mask="url(#mask0_337_22015)">
<path d="M48.6069 56.1212L45.6454 49.2111C45.3194 48.4505 45.1827 47.6223 45.2469 46.7974L47.3089 20.285C47.3557 19.6843 47.815 19.1975 48.412 19.1161L81.2243 14.6417C82.0386 14.5307 82.8333 14.9503 83.2008 15.6854L86.3817 22.0472C86.83 22.9437 87.0365 23.9417 86.9809 24.9424L85.6719 48.5046C85.5524 50.6553 83.9192 52.4164 81.7836 52.6974L49.9503 56.886C49.3817 56.9608 48.8328 56.6483 48.6069 56.1212Z" fill="url(#paint0_linear_337_22015)"/>
<path d="M80.9716 13.6518C82.5782 13.4288 83.9843 14.7375 83.8776 16.3559L82.1315 42.8444C82.0503 44.0746 81.1034 45.0718 79.8792 45.2173L46.8925 49.1358C45.262 49.3294 43.8732 47.9596 44.0446 46.3266L46.7694 20.3656C46.8924 19.1953 47.7974 18.2596 48.963 18.0977L80.9716 13.6518ZM81.1472 14.9198L49.1392 19.3651L49.0317 19.3851C48.5014 19.5052 48.1001 19.9507 48.0424 20.4994L45.3176 46.4604L45.3101 46.6116C45.3188 47.3593 45.977 47.9554 46.7413 47.8646L79.728 43.9468C80.3019 43.8787 80.754 43.4358 80.8416 42.8738L80.8541 42.76L82.6009 16.2716C82.6541 15.4624 81.9505 14.8082 81.1472 14.9198Z" fill="black"/>
<path d="M61.1823 33.4217C60.3369 34.2632 59.5653 35.1308 58.8676 36.0244L58.5868 35.7273L58.1384 35.296C58.101 35.26 58.0543 35.2151 57.9983 35.1612C57.9422 35.1073 57.8675 35.0354 57.7741 34.9455C57.6806 34.8557 57.5498 34.7299 57.3817 34.5681C57.2319 34.406 57.0351 34.1898 56.7915 33.9195L56.8185 33.8915C57.376 33.3306 57.9054 32.7428 58.4069 32.128C58.927 31.5312 59.4563 30.9342 59.9947 30.337C60.5332 29.7398 61.09 29.1423 61.6651 28.5444C62.2402 27.9465 62.871 27.3842 63.5575 26.8575C64.0041 27.1972 64.4514 27.5735 64.8995 27.9865C65.3659 28.3992 65.8326 28.8302 66.2997 29.2795C66.7852 29.7284 67.2614 30.1775 67.7285 30.6268C68.214 31.0758 68.6807 31.5067 69.1288 31.9197C69.4273 32.189 69.7074 32.4494 69.969 32.701C70.2489 32.9522 70.5197 33.2037 70.7812 33.4553C70.6928 33.622 70.5585 33.7896 70.3785 33.9581C70.2167 34.1263 70.046 34.3038 69.8663 34.4906C69.6865 34.6775 69.5068 34.8643 69.3271 35.0511C69.1657 35.2376 69.0316 35.4144 68.9249 35.5815C68.5713 35.3134 68.1798 34.9818 67.7504 34.5867C67.3211 34.1917 66.8637 33.7697 66.3782 33.3208C65.9115 32.8898 65.4354 32.4498 64.95 32.0009C64.4649 31.5703 63.9991 31.1851 63.5524 30.8454C62.8177 31.7215 62.0276 32.5802 61.1823 33.4217Z" fill="black"/>
<path d="M81.5077 13.6675C83.1761 13.4345 84.6111 14.8488 84.402 16.5204L81.0563 43.2546C80.9099 44.4238 79.9843 45.3422 78.814 45.4793L47.5189 49.1403C45.8956 49.3302 44.5126 47.9711 44.6744 46.3447L47.2516 20.429C47.3685 19.2535 48.2749 18.3104 49.4448 18.1469L49.6219 19.4145L49.5136 19.434C48.9816 19.5553 48.5798 20.0043 48.525 20.5553L45.9478 46.4716L45.9417 46.622C45.9539 47.3663 46.6089 47.9583 47.3698 47.8694L78.6647 44.2078C79.2134 44.1436 79.6549 43.7361 79.7682 43.2036L79.7865 43.0957L83.1316 16.3616C83.2297 15.578 82.6054 14.9076 81.8396 14.9229L81.6848 14.9351L81.5077 13.6675ZM81.5077 13.6675L81.6848 14.9351L49.6219 19.4145L49.4448 18.1469L81.5077 13.6675Z" fill="black"/>
<path d="M44.1904 47.414L46.7501 48.3739L49.1032 54.9102C49.4102 55.7632 50.2722 56.2851 51.1704 56.1619L83.0933 51.7836C83.987 51.661 84.6749 50.9327 84.7462 50.0334L86.8234 23.8537C86.8499 23.5191 86.7883 23.1834 86.6446 22.88L83.9841 17.2635L83.9841 14.7037L87.9817 22.4133C88.2973 23.022 88.4442 23.7041 88.4071 24.3887L87.1208 48.1137C86.9716 50.8664 84.8928 53.1273 82.1623 53.5067L50.3685 57.9237C48.8308 58.1373 47.3616 57.2164 46.8838 55.7393L44.1904 47.414Z" fill="black"/>
<path d="M4.78295 95.4238L2.10232 88.3567C1.78775 87.5274 1.69404 86.6305 1.83037 85.7541L5.95537 59.2362C6.04237 58.677 6.48634 58.2413 7.04713 58.1648L39.9373 53.6798C40.7516 53.5687 41.5463 53.9884 41.9138 54.7235L45.0947 61.0853C45.543 61.9818 45.7495 62.9798 45.6939 63.9805L44.385 87.5411C44.2655 89.6925 42.6312 91.454 40.4948 91.7342L6.14607 96.2389C5.55768 96.3161 4.99341 95.9787 4.78295 95.4238Z" fill="url(#paint1_linear_337_22015)"/>
<path d="M39.0429 52.6889C40.6495 52.466 42.0557 53.7746 41.949 55.393L40.201 81.9015C40.121 83.1137 39.2002 84.1028 37.9968 84.2688L3.61145 89.0116C1.91641 89.2454 0.473642 87.7822 0.731064 86.0905L4.80886 59.2915C4.97928 58.1717 5.86558 57.2969 6.98743 57.141L39.0429 52.6889ZM39.2186 53.9569L7.16367 58.409L7.05992 58.4278C6.54879 58.5421 6.15431 58.9591 6.07438 59.484L1.99659 86.283L1.98221 86.4405C1.95865 87.2173 2.64202 87.8531 3.43647 87.7435L37.8218 83.0008C38.3859 82.923 38.8259 82.4836 38.9117 81.9296L38.9242 81.8171L40.6722 55.3087C40.7255 54.4995 40.0218 53.8453 39.2186 53.9569Z" fill="black"/>
<path d="M22.9467 72.7245C23.8593 73.4925 24.7914 74.1847 25.7429 74.8011L25.4717 75.107L25.0815 75.5916C25.049 75.632 25.0084 75.6825 24.9596 75.743C24.9108 75.8036 24.8458 75.8844 24.7645 75.9853C24.6832 76.0863 24.5694 76.2277 24.4231 76.4094C24.2748 76.5729 24.0767 76.7879 23.8289 77.0543L23.7986 77.0299C23.1909 76.524 22.5587 76.0483 21.9022 75.6029C21.2619 75.1373 20.6207 74.6626 19.9784 74.1788C19.3362 73.695 18.692 73.193 18.0458 72.6727C17.3996 72.1525 16.784 71.5736 16.1989 70.9361C16.498 70.4613 16.8335 69.9826 17.2055 69.4999C17.5755 68.999 17.9637 68.4962 18.3701 67.9913C18.7746 67.4683 19.1801 66.9544 19.5866 66.4495C19.991 65.9265 20.3793 65.4236 20.7512 64.941C20.9931 64.6198 21.2279 64.3179 21.4555 64.0352C21.6812 63.7343 21.9078 63.4425 22.1354 63.1598C22.3093 63.2332 22.4881 63.3522 22.6718 63.5167C22.8535 63.663 23.0453 63.8175 23.2473 63.9801C23.4492 64.1427 23.6511 64.3052 23.853 64.4678C24.053 64.6122 24.2409 64.7302 24.4167 64.8218C24.1807 65.1976 23.8849 65.6168 23.5292 66.0792C23.1735 66.5417 22.7934 67.0345 22.3889 67.5575C22.0007 68.0604 21.6043 68.5733 21.1998 69.0964C20.8136 69.6175 20.4709 70.1154 20.1718 70.5902C21.1091 71.245 22.034 71.9564 22.9467 72.7245Z" fill="black"/>
<path d="M39.5791 52.7052C41.2476 52.4721 42.6825 53.8865 42.4734 55.5581L39.1251 82.3148C38.9815 83.4629 38.0852 84.372 36.9392 84.5321L4.8504 89.0152C3.18193 89.2482 1.74698 87.8339 1.95614 86.1622L5.30437 59.4056C5.44805 58.2574 6.34432 57.3484 7.49026 57.1882L7.66736 58.4558C7.09442 58.5359 6.64656 58.9904 6.57472 59.5644L3.22649 86.3211L3.21603 86.4765C3.21191 87.2423 3.89134 87.8568 4.67331 87.7476L36.7622 83.2646L36.868 83.2453C37.3896 83.1274 37.7874 82.6941 37.8548 82.1559L41.203 55.3993C41.3076 54.5634 40.5905 53.8562 39.7562 53.9727L39.5791 52.7052ZM39.5791 52.7052L39.7562 53.9727L7.66736 58.4558L7.49026 57.1882L39.5791 52.7052Z" fill="black"/>
<path d="M0.779318 87.0178L3.33909 87.9777L5.39511 94.1457C5.68724 95.022 6.56208 95.5661 7.47729 95.4406L41.1651 90.8203C42.0589 90.6977 42.7467 89.9694 42.8181 89.0701L44.8952 62.8905C44.9217 62.5559 44.8601 62.2201 44.7164 61.9168L42.056 56.3003L42.056 53.7405L46.0536 61.4501C46.3692 62.0588 46.516 62.7408 46.4789 63.4254L45.1927 87.1501C45.0434 89.9029 42.9644 92.164 40.2337 92.5431L6.68813 97.2008C5.12818 97.4173 3.64258 96.4666 3.18585 94.9594L0.779318 87.0178Z" fill="black"/>
<path d="M45.7172 89.4005L42.7557 82.4904C42.4298 81.7298 42.2931 80.9016 42.3572 80.0767L44.4193 53.5643C44.466 52.9636 44.9254 52.4768 45.5224 52.3954L78.3346 47.921C79.1489 47.81 79.9436 48.2296 80.3112 48.9647L83.4921 55.3265C83.9403 56.223 84.1469 57.221 84.0913 58.2217L82.7823 81.7839C82.6628 83.9346 81.0295 85.6957 78.8939 85.9767L47.0606 90.1653C46.4921 90.2401 45.9431 89.9276 45.7172 89.4005Z" fill="url(#paint2_linear_337_22015)"/>
<path d="M78.081 46.9301C79.6875 46.7071 81.0937 48.0158 80.987 49.6343L79.2409 76.1227C79.1596 77.3529 78.2128 78.3501 76.9886 78.4957L44.0019 82.4141C42.3714 82.6078 40.9826 81.2379 41.154 79.605L43.8788 53.6439C44.0017 52.4736 44.9068 51.5379 46.0723 51.376L78.081 46.9301ZM78.2566 48.1981L46.2486 52.6434L46.1411 52.6634C45.6108 52.7836 45.2094 53.229 45.1518 53.7777L42.427 79.7387L42.4195 79.8899C42.4282 80.6376 43.0864 81.2337 43.8506 81.143L76.8373 77.2251C77.4113 77.157 77.8633 76.7141 77.951 76.1521L77.9635 76.0384L79.7102 49.5499C79.7635 48.7407 79.0599 48.0866 78.2566 48.1981Z" fill="black"/>
<path d="M63.6012 65.3277C64.5334 64.5836 65.395 63.8054 66.1861 62.9933L66.4328 63.3192L66.8315 63.7969C66.8647 63.8367 66.9062 63.8865 66.956 63.9462C67.0059 64.0059 67.0723 64.0855 67.1554 64.1851C67.2384 64.2846 67.3547 64.4239 67.5042 64.6031C67.6354 64.7806 67.8074 65.0169 68.02 65.3122L67.9901 65.3371C67.3748 65.8338 66.7843 66.3603 66.2187 66.9167C65.6366 67.4532 65.0453 67.9888 64.4449 68.5236C63.8444 69.0585 63.2258 69.5916 62.5888 70.1232C61.9519 70.6547 61.2635 71.1448 60.5236 71.5934C60.1167 71.207 59.7131 70.7841 59.3128 70.3246C58.8943 69.8635 58.4774 69.3842 58.0621 68.8866C57.6286 68.3873 57.2042 67.8889 56.7889 67.3913C56.3554 66.892 55.9385 66.4127 55.5382 65.9532C55.2708 65.653 55.0208 65.3636 54.7883 65.0849C54.5375 64.8046 54.2958 64.5251 54.0632 64.2465C54.1694 64.0904 54.3211 63.9384 54.5185 63.7906C54.6976 63.6411 54.8867 63.4833 55.0858 63.3172C55.2848 63.1511 55.4839 62.985 55.6829 62.8189C55.8637 62.6511 56.0163 62.49 56.1406 62.3356C56.4628 62.6408 56.8157 63.0131 57.1994 63.4526C57.5831 63.8922 57.9917 64.3616 58.4252 64.8608C58.8421 65.3402 59.2674 65.8295 59.7009 66.3287C60.136 66.8097 60.5571 67.2434 60.964 67.6298C61.7899 66.8393 62.669 66.0719 63.6012 65.3277Z" fill="black"/>
<path d="M78.6161 46.9448C80.2845 46.7118 81.7195 48.1262 81.5104 49.7978L78.1647 76.532C78.0183 77.7012 77.0927 78.6196 75.9224 78.7566L44.6273 82.4176C43.004 82.6075 41.621 81.2484 41.7828 79.6221L44.36 53.7064C44.4769 52.5308 45.3833 51.5877 46.5532 51.4242L46.7303 52.6918L46.622 52.7114C46.09 52.8326 45.6882 53.2816 45.6334 53.8326L43.0562 79.7489L43.0501 79.8993C43.0623 80.6437 43.7173 81.2356 44.4782 81.1467L75.7731 77.4851C76.3218 77.4209 76.7633 77.0134 76.8766 76.481L76.8949 76.373L80.24 49.6389C80.3381 48.8553 79.7138 48.185 78.948 48.2002L78.7932 48.2124L78.6161 46.9448ZM78.6161 46.9448L78.7932 48.2124L46.7303 52.6918L46.5532 51.4242L78.6161 46.9448Z" fill="black"/>
<path d="M41.2988 80.6923L43.8585 81.6522L46.2116 88.1885C46.5186 89.0415 47.3806 89.5634 48.2788 89.4402L80.2017 85.0619C81.0954 84.9393 81.7833 84.211 81.8546 83.3117L83.9317 57.132C83.9583 56.7974 83.8966 56.4617 83.753 56.1583L81.0925 50.5418L81.0925 47.982L85.0901 55.6917C85.4057 56.3003 85.5526 56.9824 85.5155 57.667L84.2292 81.3921C84.08 84.1447 82.0012 86.4057 79.2707 86.785L47.4769 91.202C45.9392 91.4157 44.47 90.4947 43.9922 89.0177L41.2988 80.6923Z" fill="black"/>
<path d="M85.0844 83.6388L82.1229 76.7287C81.797 75.9681 81.6602 75.1399 81.7244 74.315L83.7865 47.8026C83.8332 47.2019 84.2926 46.7151 84.8896 46.6337L117.702 42.1593C118.516 42.0482 119.311 42.4678 119.678 43.2029L122.859 49.5648C123.308 50.4613 123.514 51.4592 123.458 52.46L122.149 76.0222C122.03 78.1729 120.397 79.934 118.261 80.215L86.4278 84.4036C85.8593 84.4784 85.3103 84.1659 85.0844 83.6388Z" fill="url(#paint3_linear_337_22015)"/>
<path d="M117.449 41.1694C119.056 40.9464 120.462 42.255 120.355 43.8735L118.609 70.362C118.528 71.5922 117.581 72.5894 116.357 72.7349L83.3701 76.6534C81.7396 76.847 80.3508 75.4772 80.5222 73.8442L83.2469 47.8832C83.3699 46.7129 84.2749 45.7772 85.4405 45.6153L117.449 41.1694ZM117.625 42.4374L85.6167 46.8827L85.5093 46.9027C84.979 47.0228 84.5776 47.4683 84.52 48.0169L81.7952 73.9779L81.7877 74.1292C81.7963 74.8768 82.4545 75.473 83.2188 75.3822L116.206 71.4644C116.779 71.3962 117.232 70.9534 117.319 70.3914L117.332 70.2776L119.078 43.7892C119.132 42.9799 118.428 42.3258 117.625 42.4374Z" fill="black"/>
<path d="M98.7322 56.1451C97.8153 55.3822 96.8793 54.6952 95.9243 54.0842L96.1938 53.7769L96.5812 53.29C96.6135 53.2495 96.6539 53.1988 96.7023 53.1379C96.7508 53.0771 96.8153 52.9959 96.8961 52.8945C96.9768 52.7931 97.0898 52.6511 97.2351 52.4685C97.3825 52.3042 97.5793 52.0881 97.8256 51.8203L97.856 51.8445C98.4666 52.347 99.1014 52.8191 99.7605 53.2608C100.403 53.7228 101.047 54.1939 101.692 54.6741C102.337 55.1542 102.984 55.6526 103.633 56.1692C104.282 56.6859 104.901 57.2613 105.49 57.8954C105.194 58.3719 104.861 58.8525 104.491 59.3373C104.124 59.8402 103.739 60.3453 103.335 60.8524C102.934 61.3777 102.531 61.8939 102.128 62.401C101.726 62.9263 101.341 63.4314 100.971 63.9161C100.731 64.2386 100.498 64.5418 100.272 64.8258C100.048 65.128 99.8233 65.4211 99.5973 65.7051C99.423 65.6326 99.2436 65.5146 99.0589 65.3511C98.8764 65.2058 98.6837 65.0525 98.4808 64.891C98.278 64.7296 98.0752 64.5681 97.8723 64.4067C97.6715 64.2635 97.483 64.1465 97.3066 64.0559C97.5405 63.6788 97.834 63.258 98.1871 62.7935C98.5402 62.329 98.9175 61.8341 99.3191 61.3088C99.7045 60.8038 100.098 60.2886 100.499 59.7633C100.883 59.24 101.223 58.7402 101.519 58.2637C100.578 57.6142 99.6491 56.908 98.7322 56.1451Z" fill="black"/>
<path d="M117.984 41.185C119.653 40.952 121.088 42.3664 120.879 44.038L117.533 70.7722C117.386 71.9414 116.461 72.8598 115.291 72.9968L83.9955 76.6578C82.3722 76.8478 80.9892 75.4887 81.1509 73.8623L83.7282 47.9466C83.8451 46.7711 84.7515 45.8279 85.9214 45.6645L86.0985 46.9321L85.9902 46.9516C85.4582 47.0729 85.0564 47.5219 85.0015 48.0729L82.4244 73.9892L82.4182 74.1396C82.4305 74.8839 83.0855 75.4758 83.8464 75.387L115.141 71.7254C115.69 71.6612 116.131 71.2537 116.245 70.7212L116.263 70.6133L119.608 43.8792C119.706 43.0956 119.082 42.4252 118.316 42.4405L118.161 42.4526L117.984 41.185ZM117.984 41.185L118.161 42.4526L86.0985 46.9321L85.9214 45.6645L117.984 41.185Z" fill="black"/>
<path d="M80.6669 74.9315L83.2267 75.8915L85.5797 82.4277C85.8868 83.2807 86.7488 83.8027 87.6469 83.6795L119.57 79.3011C120.464 79.1786 121.151 78.4502 121.223 77.5509L123.3 51.3713C123.326 51.0367 123.265 50.7009 123.121 50.3976L120.461 44.7811L120.461 42.2213L124.458 49.9309C124.774 50.5396 124.921 51.2217 124.884 51.9063L123.597 75.6313C123.448 78.384 121.369 80.6449 118.639 81.0243L86.845 85.4413C85.3074 85.6549 83.8382 84.734 83.3604 83.2569L80.6669 74.9315Z" fill="black"/>
<g style="mix-blend-mode:multiply" opacity="0.3">
<path d="M104 50C104 78.1665 81.1666 101 53.0001 101C24.8336 101 2.0001 78.1665 2.0001 50L2 107H104L104 50Z" fill="black"/>
</g>
</g>
</g>
</g>
<defs>
<linearGradient id="paint0_linear_337_22015" x1="66.154" y1="14.9612" x2="66.154" y2="57.186" gradientUnits="userSpaceOnUse">
<stop stop-color="#ECEAE9"/>
<stop offset="1" stop-color="#888581"/>
</linearGradient>
<linearGradient id="paint1_linear_337_22015" x1="23.7818" y1="54.0018" x2="23.7818" y2="96.541" gradientUnits="userSpaceOnUse">
<stop stop-color="#ECEAE9"/>
<stop offset="1" stop-color="#888581"/>
</linearGradient>
<linearGradient id="paint2_linear_337_22015" x1="63.2643" y1="48.2405" x2="63.2643" y2="90.4653" gradientUnits="userSpaceOnUse">
<stop stop-color="#ECEAE9"/>
<stop offset="1" stop-color="#888581"/>
</linearGradient>
<linearGradient id="paint3_linear_337_22015" x1="102.632" y1="42.4788" x2="102.632" y2="84.7036" gradientUnits="userSpaceOnUse">
<stop stop-color="#ECEAE9"/>
<stop offset="1" stop-color="#888581"/>
</linearGradient>
<clipPath id="clip0_337_22015">
<rect width="106" height="106" fill="white"/>
</clipPath>
<clipPath id="clip1_337_22015">
<rect width="106" height="106" fill="white"/>
</clipPath>
</defs>
</svg>
