<svg width="266" height="148" viewBox="0 0 266 148" fill="none" xmlns="http://www.w3.org/2000/svg">
<g clip-path="url(#clip0_281_15870)">
<g style="mix-blend-mode:multiply" opacity="0.4">
<ellipse cx="33" cy="24" rx="33" ry="24" transform="matrix(-1 0 0 1 67 92)" fill="black"/>
</g>
<path d="M33.9999 134.3C46.3018 134.3 56.8743 126.895 61.5037 116.3H6.49619C11.1255 126.895 21.698 134.3 33.9999 134.3Z" fill="#296891" stroke="black" stroke-width="2" stroke-linejoin="round"/>
<rect width="68" height="80" rx="32" transform="matrix(-1 0 0 1 68 49)" fill="#218DD2" stroke="black" stroke-width="2"/>
<g style="mix-blend-mode:soft-light" opacity="0.5">
<path d="M10 94.5C17 99 22.2134 101 36.0496 101C49.8859 101 61.5344 95.0677 65 87" stroke="white" stroke-width="2" stroke-linecap="round"/>
</g>
<path d="M0 93C0 105.15 15.2223 115 34 115C52.7777 115 68 105.15 68 93" stroke="black" stroke-width="2"/>
<path d="M9 70C9 79.9411 20.1929 88 34 88C47.8071 88 59 79.9411 59 70C59 69 59 63 59 63H9C9 63 9 68.9779 9 70Z" stroke="black" stroke-width="2"/>
<ellipse cx="25" cy="18" rx="25" ry="18" transform="matrix(-1 0 0 1 59 44)" fill="#2FADE4" stroke="black" stroke-width="2"/>
<ellipse cx="21" cy="14" rx="21" ry="14" transform="matrix(-1 0 0 1 55 48)" fill="#296891" stroke="black" stroke-width="2"/>
<ellipse cx="18" cy="10" rx="18" ry="10" transform="matrix(-1 0 0 1 52 56)" fill="#218DD2" stroke="black" stroke-width="2"/>
<g style="mix-blend-mode:soft-light" opacity="0.5">
<rect width="3" height="3" rx="1.5" transform="matrix(-1 0 0 1 7 88)" fill="white"/>
</g>
<rect width="6" height="32" rx="3" transform="matrix(-1 0 0 1 37 34)" fill="#727070" stroke="black" stroke-width="2"/>
<ellipse cx="7" cy="6" rx="7" ry="6" transform="matrix(-1 0 0 1 41 41)" fill="#999999" stroke="black" stroke-width="2"/>
<ellipse cx="3" cy="2" rx="3" ry="2" transform="matrix(-1 0 0 1 37 45)" fill="#E3A76B" stroke="black" stroke-width="2"/>
<path d="M81 58C81 58 68.7159 53.5 67.6477 44C66.5795 34.5 69.25 35 69.25 27C69.25 19 62.8409 9 50.0227 9C37.2045 9 34 20.5 34 31" stroke="#464543" stroke-width="4"/>
<rect width="10" height="6" rx="3" transform="matrix(-1 0 0 1 39 31)" fill="#B3B3B3" stroke="black" stroke-width="2"/>
<g style="mix-blend-mode:multiply" opacity="0.4">
<rect x="78" y="69" width="188" height="79" rx="11" fill="black"/>
</g>
<rect x="81" width="182" height="146" rx="10" fill="#A8AEB4" stroke="black" stroke-width="2"/>
<rect x="81" width="182" height="128" rx="10" fill="#D5DADF" stroke="black" stroke-width="2"/>
<rect x="81" width="182" height="80" rx="10" fill="#BABEC3" stroke="black" stroke-width="2"/>
<g style="mix-blend-mode:soft-light" opacity="0.5">
<rect x="84" y="7" width="5" height="29" rx="2.5" fill="#D9D9D9"/>
</g>
<g style="mix-blend-mode:soft-light" opacity="0.5">
<rect x="84" y="40" width="5" height="5" rx="2.5" fill="#D9D9D9"/>
</g>
<rect x="95" y="86" width="154" height="36" rx="4" fill="#333333" stroke="black" stroke-width="2"/>
<rect x="149" y="91" width="46" height="6" rx="3" fill="#6D6C67" stroke="black" stroke-width="2"/>
<ellipse cx="148" cy="69" rx="7" ry="5" fill="#433939" stroke="black"/>
<ellipse cx="172" cy="69" rx="7" ry="5" fill="#433939" stroke="black"/>
<ellipse cx="220" cy="69" rx="7" ry="5" fill="#433939" stroke="black"/>
<ellipse cx="100" cy="69" rx="7" ry="5" fill="#433939" stroke="black"/>
<ellipse cx="196" cy="69" rx="7" ry="5" fill="#433939" stroke="black"/>
<ellipse cx="244" cy="69" rx="7" ry="5" fill="#433939" stroke="black"/>
<ellipse cx="124" cy="69" rx="7" ry="5" fill="#433939" stroke="black"/>
<rect x="149" y="10" width="46" height="48" rx="4" stroke="#353637" stroke-width="2"/>
<path d="M149 34H195" stroke="#353637" stroke-width="2"/>
<path d="M195 34.0002L185 28.2265" stroke="#353637" stroke-width="2"/>
<path d="M149 34.0002L159 28.2265" stroke="#353637" stroke-width="2"/>
<path d="M159 15.7735L151 11.1549" stroke="#353637" stroke-width="2"/>
<path d="M185 15.7735L193 11.1549" stroke="#353637" stroke-width="2"/>
<ellipse cx="172" cy="22" rx="9" ry="4" stroke="#353637" stroke-width="2"/>
<ellipse cx="172" cy="22" rx="18" ry="10" stroke="#353637" stroke-width="2"/>
<path d="M195 56.8454L185 51.0717" stroke="#353637" stroke-width="2"/>
<path d="M149 56.8454L159 51.0717" stroke="#353637" stroke-width="2"/>
<path d="M159 38.6187L151 34.0001" stroke="#353637" stroke-width="2"/>
<path d="M185 38.6187L193 34.0001" stroke="#353637" stroke-width="2"/>
<ellipse cx="172" cy="44.8452" rx="9" ry="4" stroke="#353637" stroke-width="2"/>
<ellipse cx="172" cy="44.8452" rx="18" ry="10" stroke="#353637" stroke-width="2"/>
<rect x="203" y="10" width="46" height="48" rx="4" stroke="#353637" stroke-width="2"/>
<path d="M203 34H249" stroke="#353637" stroke-width="2"/>
<path d="M249 34.0002L239 28.2265" stroke="#353637" stroke-width="2"/>
<path d="M203 34.0002L213 28.2265" stroke="#353637" stroke-width="2"/>
<path d="M213 15.7735L205 11.1549" stroke="#353637" stroke-width="2"/>
<path d="M239 15.7735L247 11.1549" stroke="#353637" stroke-width="2"/>
<ellipse cx="226" cy="22" rx="9" ry="4" stroke="#353637" stroke-width="2"/>
<ellipse cx="226" cy="22" rx="18" ry="10" stroke="#353637" stroke-width="2"/>
<path d="M249 56.8454L239 51.0717" stroke="#353637" stroke-width="2"/>
<path d="M203 56.8454L213 51.0717" stroke="#353637" stroke-width="2"/>
<path d="M213 38.6187L205 34.0001" stroke="#353637" stroke-width="2"/>
<path d="M239 38.6187L247 34.0001" stroke="#353637" stroke-width="2"/>
<ellipse cx="226" cy="44.8452" rx="9" ry="4" stroke="#353637" stroke-width="2"/>
<ellipse cx="226" cy="44.8452" rx="18" ry="10" stroke="#353637" stroke-width="2"/>
<rect x="95" y="10" width="46" height="48" rx="4" stroke="#353637" stroke-width="2"/>
<path d="M95 34H141" stroke="#353637" stroke-width="2"/>
<path d="M141 34.0002L131 28.2265" stroke="#353637" stroke-width="2"/>
<path d="M95 34.0002L105 28.2265" stroke="#353637" stroke-width="2"/>
<path d="M105 15.7735L97 11.1549" stroke="#353637" stroke-width="2"/>
<path d="M131 15.7735L139 11.1549" stroke="#353637" stroke-width="2"/>
<ellipse cx="118" cy="22" rx="9" ry="4" stroke="#353637" stroke-width="2"/>
<ellipse cx="118" cy="22" rx="18" ry="10" stroke="#353637" stroke-width="2"/>
<path d="M141 56.8454L131 51.0717" stroke="#353637" stroke-width="2"/>
<path d="M95 56.8454L105 51.0717" stroke="#353637" stroke-width="2"/>
<path d="M105 38.6187L97 34.0001" stroke="#353637" stroke-width="2"/>
<path d="M131 38.6187L139 34.0001" stroke="#353637" stroke-width="2"/>
<ellipse cx="118" cy="44.8452" rx="9" ry="4" stroke="#353637" stroke-width="2"/>
<ellipse cx="118" cy="44.8452" rx="18" ry="10" stroke="#353637" stroke-width="2"/>
</g>
<defs>
<clipPath id="clip0_281_15870">
<rect width="266" height="148" fill="white"/>
</clipPath>
</defs>
</svg>
