<svg xmlns="http://www.w3.org/2000/svg" viewBox="0 0 230.78 361.78"><defs><style>.cls-1{fill:#fde4d1;}.cls-2{fill:#b06726;}.cls-3{fill:#fff;}</style></defs><g id="Camada_2" data-name="Camada 2"><g id="Camada_1-2" data-name="Camada 1"><path class="cls-1" d="M215.17,167.52c5-3.86,5.47-3.1,3.26,5.63q-3.23,12.69-11.91,18.52c-8.81,5.92-6.29,5.76-91.13,5.76h-78L31.47,195c-10.33-4.16-16.93-13.14-19.06-25.95l-.73-4.33,5.23,3.59c10.7,7.36,6.74,7.08,99.48,7.08h83l5.78-2.33A51.71,51.71,0,0,0,215.17,167.52Z"/><path class="cls-1" d="M219.39,92v50.52l-3.31,6.72c-3.82,7.76-8.55,11.62-17.33,14.18-4.91,1.43-14.48,1.58-85.45,1.33l-79.91-.27-5.23-2.36a29,29,0,0,1-14.88-16.22c-1.75-5-1.89-9-1.89-54.42,0-48.89,0-49,2.38-56.25C17.48,23.83,25,16.55,35.62,14c2.11-.5,38.26-.83,81.87-.73l78.1.16,6.9,3.51c5.35,2.72,7.63,4.6,10.16,8.37C219.34,35.3,219.39,35.83,219.39,92Z"/><path class="cls-2" d="M97.47,261.94l.71,6.3-3.27-.66a36.21,36.21,0,0,0-5.78-.65c-2.45,0-2.5-.15-2-5.37a32.76,32.76,0,0,1,2.66-9.5c1.16-2.27,2.5-4.13,3-4.13C94.27,247.93,96.72,255.29,97.47,261.94Z"/><path class="cls-2" d="M214.68,201.53c1-.62,1.23,11.18,1,62.57-.27,57.69-.45,63.74-2.06,67.89-3.85,9.93-11.71,15.85-23.82,17.93-4.37.76-29.18,1-78.39.81l-72-.3-5.87-2.37a27.52,27.52,0,0,1-15.77-15.77l-2.36-5.86L15.1,263l-.29-63.4,2.29,1.68C23,205.67,31.81,209,40,210c5.41.66,35.11.91,81.92.7,67.42-.32,73.87-.49,78.83-2.14a51.54,51.54,0,0,0,9-4C211.77,203.29,214,202,214.68,201.53Zm-24.41,33.06c8.69-4.3,12.54-8,11-10.45-1.75-2.8-5.49-2.42-12.25,1.25-8,4.34-10.12,6.25-10.12,9.13C178.89,238.47,182.36,238.5,190.27,234.59Zm-23.79,54.34c10.72,0,15.2-3.07,10.84-7.43-1.17-1.16-3.63-1.57-9.57-1.57-4.39,0-8.9-.49-10-1.08-2.33-1.25-4.85-6.67-4.85-10.44,0-2.56,0-2.57,6-1.9,6.6.74,11-1,11-4.4s-2.17-4.18-9.71-4.18h-7.32l1.53-3.75c2.09-5.11,5.54-7.91,12.1-9.82,6-1.76,7.79-3.94,4.87-6.08-2.21-1.62-6.59-1.63-11.74,0a23.58,23.58,0,0,0-13,11c-1.94,3.63-2.25,5.72-2.25,15.21,0,10.18.2,11.34,2.74,15.65C151,286.61,156,288.93,166.48,288.93Zm-27.79-43.2A3.55,3.55,0,0,0,138,240c-2.69-1.43-10.81-1.21-15.39.42-10.45,3.73-13.11,11.34-11.52,33,1,13.13,1.85,16.58,4.25,16.58s3.74-2.9,4.31-10.44l.57-7.56h5.42c6.56,0,9.29-1.29,9.29-4.41,0-3.75-2.24-4.8-9.46-4.43l-6.54.34v-4a17.74,17.74,0,0,1,1.27-6.5c1.69-3.39,7.25-6,12.77-6C135.44,246.93,138,246.39,138.69,245.73ZM104.36,288c2-1.66,2.89-16,1.67-26.77-1.26-11.26-3.83-17.49-8.32-20.23-4-2.46-4.43-2.48-8.8-.28-3.93,2-7.5,6.77-9,12.13-2.93,10.25-3.39,29.42-.83,34.37a4.11,4.11,0,0,0,3.4,1.75c3.13,0,4.84-3.95,4-9.25-.57-3.6-.48-3.75,2.29-3.75a36.79,36.79,0,0,1,6,.62c3,.59,3.09.84,3.37,6.25.27,5,.55,5.67,2.6,6A5.41,5.41,0,0,0,104.36,288ZM67.92,251.85c7.93-1.41,9.76-3.58,6.11-7.22-2.57-2.58-11.79-3.28-17.64-1.35-6.73,2.21-10.09,4.38-14.39,9.26-4.07,4.63-7.12,12-7.1,17.32,0,11.46,10.78,20.12,24.92,20.05,8.61,0,16.56-5.5,14.18-9.74-.84-1.5-2.61-1.74-12.63-1.74-11.18,0-11.72-.1-13.66-2.48-2.54-3.13-2-7.3,1.73-12.91C53.32,257.17,59.66,253.33,67.92,251.85Z"/><path d="M226.41,22.38c4.38,9.91,4.6,14.2,4.26,84.55-.29,59.75-.49,67-2,71.5s-1.72,11.43-1.75,74.5c0,74.29-.22,77.62-5,87.14-4.68,9.22-12.21,15.51-22.9,19.12-6.47,2.19-7.33,2.21-78,2.53-44.51.2-74.37-.06-79.1-.7-12.1-1.61-18.47-4.48-25.49-11.5-6.83-6.83-9.77-13.14-11.41-24.42-.54-3.76-1-36.55-1-75.17,0-59.39-.23-69.43-1.63-75.5C.92,168.54.59,157.62.17,105.38-.18,61.49,0,41.15.82,35.88,3.62,17.67,13.71,6.16,30.94,1.53,35.5.3,49.19.05,114.89,0,199,0,200.28,0,210.06,5,216.05,8.07,223.66,16.15,226.41,22.38Zm-7,120.09V92c0-56.12,0-56.65-6.74-66.64-2.53-3.77-4.81-5.65-10.16-8.37l-6.9-3.51-78.1-.16c-43.61-.1-79.76.23-81.87.73C25,16.55,17.48,23.83,13.77,35.18c-2.37,7.23-2.38,7.36-2.38,56.25,0,45.44.14,49.39,1.89,54.42a29,29,0,0,0,14.88,16.22l5.23,2.36,79.91.27c71,.25,80.54.1,85.45-1.33,8.78-2.56,13.51-6.42,17.33-14.18Zm-1,30.68c2.21-8.73,1.77-9.49-3.26-5.63a51.71,51.71,0,0,1-10,5.58l-5.78,2.33h-83c-92.74,0-88.78.28-99.48-7.08l-5.23-3.59.73,4.33c2.13,12.81,8.73,21.79,19.06,25.95l5.92,2.39h78c84.84,0,82.32.16,91.13-5.76Q215.22,185.82,218.43,173.15Zm-2.77,91c.25-51.39.06-63.19-1-62.57-.71.42-2.91,1.76-4.89,3a51.54,51.54,0,0,1-9,4c-5,1.65-11.41,1.82-78.83,2.14-46.81.21-76.51,0-81.92-.7-8.23-1-17-4.33-22.94-8.69l-2.29-1.68L15.1,263l.29,63.4,2.36,5.86a27.52,27.52,0,0,0,15.77,15.77l5.87,2.37,72,.3c49.21.2,74-.05,78.39-.81,12.11-2.08,20-8,23.82-17.93C215.21,327.84,215.39,321.79,215.66,264.1Z"/><path class="cls-3" d="M201.26,224.14c1.55,2.49-2.3,6.15-11,10.45-7.91,3.91-11.38,3.88-11.38-.07,0-2.88,2.12-4.79,10.12-9.13C195.77,221.72,199.51,221.34,201.26,224.14Z"/><path class="cls-3" d="M177.32,281.5c4.36,4.36-.12,7.43-10.84,7.43-10.44,0-15.52-2.32-19.35-8.85-2.54-4.31-2.74-5.47-2.74-15.65,0-9.49.31-11.58,2.25-15.21a23.58,23.58,0,0,1,13-11c5.15-1.61,9.53-1.6,11.74,0,2.92,2.14,1.17,4.32-4.87,6.08-6.56,1.91-10,4.71-12.1,9.82l-1.53,3.75h7.32c7.54,0,9.71.93,9.71,4.18s-4.42,5.14-11,4.4c-5.94-.67-6-.66-6,1.9,0,3.77,2.52,9.19,4.85,10.44,1.11.59,5.62,1.08,10,1.08C173.69,279.93,176.15,280.34,177.32,281.5Z"/><path class="cls-3" d="M138,240a3.55,3.55,0,0,1,.73,5.77c-.66.66-3.25,1.2-5.75,1.2-5.52,0-11.08,2.61-12.77,6a17.74,17.74,0,0,0-1.27,6.5v4l6.54-.34c7.22-.37,9.46.68,9.46,4.43,0,3.12-2.73,4.41-9.29,4.41h-5.42l-.57,7.56c-.57,7.54-1.77,10.44-4.31,10.44s-3.28-3.45-4.25-16.58c-1.59-21.63,1.07-29.24,11.52-33C127.15,238.75,135.27,238.53,138,240Z"/><path class="cls-3" d="M106,261.19c1.22,10.81.32,25.11-1.67,26.77a5.41,5.41,0,0,1-3.67.8c-2-.29-2.33-.95-2.6-6-.28-5.41-.42-5.66-3.37-6.25a36.79,36.79,0,0,0-6-.62c-2.77,0-2.86.15-2.29,3.75.83,5.3-.88,9.25-4,9.25a4.11,4.11,0,0,1-3.4-1.75c-2.56-4.95-2.1-24.12.83-34.37,1.53-5.36,5.1-10.15,9-12.13,4.37-2.2,4.76-2.18,8.8.28C102.2,243.7,104.77,249.93,106,261.19Zm-7.85,7.05-.71-6.3c-.75-6.65-3.2-14-4.67-14-.48,0-1.82,1.86-3,4.13a32.76,32.76,0,0,0-2.66,9.5c-.53,5.22-.48,5.37,2,5.37a36.21,36.21,0,0,1,5.78.65Z"/><path class="cls-3" d="M74,244.63c3.65,3.64,1.82,5.81-6.11,7.22-8.26,1.48-14.6,5.32-18.48,11.19-3.71,5.61-4.27,9.78-1.73,12.91,1.94,2.38,2.48,2.48,13.66,2.48,10,0,11.79.24,12.63,1.74,2.38,4.24-5.57,9.7-14.18,9.74-14.14.07-24.9-8.59-24.92-20.05,0-5.27,3-12.69,7.1-17.32,4.3-4.88,7.66-7,14.39-9.26C62.24,241.35,71.46,242.05,74,244.63Z"/></g></g></svg>