<?xml version="1.0" encoding="UTF-8" standalone="no"?>
<!-- Created with Inkscape (http://www.inkscape.org/) -->

<svg
   width="16"
   height="16"
   viewBox="0 0 4.2333331 4.2333333"
   version="1.1"
   id="svg1"
   inkscape:version="1.3 (0e150ed6c4, 2023-07-21)"
   sodipodi:docname="Lane2D.svg"
   inkscape:export-filename="SideScroller2D.png"
   inkscape:export-xdpi="96"
   inkscape:export-ydpi="96"
   xmlns:inkscape="http://www.inkscape.org/namespaces/inkscape"
   xmlns:sodipodi="http://sodipodi.sourceforge.net/DTD/sodipodi-0.dtd"
   xmlns="http://www.w3.org/2000/svg"
   xmlns:svg="http://www.w3.org/2000/svg">
  <sodipodi:namedview
     id="namedview1"
     pagecolor="#505050"
     bordercolor="#eeeeee"
     borderopacity="1"
     inkscape:showpageshadow="0"
     inkscape:pageopacity="0"
     inkscape:pagecheckerboard="0"
     inkscape:deskcolor="#505050"
     inkscape:document-units="px"
     inkscape:zoom="16.791365"
     inkscape:cx="6.4021001"
     inkscape:cy="-5.4492294"
     inkscape:window-width="1920"
     inkscape:window-height="1009"
     inkscape:window-x="1912"
     inkscape:window-y="-8"
     inkscape:window-maximized="1"
     inkscape:current-layer="g9" />
  <defs
     id="defs1" />
  <g
     inkscape:label="Camada 1"
     inkscape:groupmode="layer"
     id="layer1"
     transform="translate(-31.201158,-116.91017)">
    <g
       id="g4"
       transform="translate(-0.26740696,1.0696279)" />
    <g
       id="g6"
       transform="rotate(-90,116.18433,156.3172)" />
    <g
       id="g10"
       transform="matrix(0.56376851,0,0,0.56376851,14.30131,63.147709)">
      <g
         id="g9"
         transform="matrix(0.05656697,0,0,0.05656697,28.637298,90.203103)">
        <path
           id="path1"
           style="fill:#8da5f3;fill-opacity:1;stroke:none;stroke-width:0.956246;stroke-linecap:square"
           d="m 51.979828,137.22081 c -0.904708,0.73591 -1.7546,1.5368 -2.543403,2.3958 -0.601681,0.60661 -1.122363,1.2657 -1.569365,1.96185 -6.585771,8.84194 -6.343388,21.02272 0.588865,29.59561 8.402812,10.34902 23.604307,11.92669 33.953306,3.52391 5.583072,-4.53418 8.853296,-11.32206 8.91972,-18.51405 l 16.835739,-13.66967 c 7.03913,1.40929 14.34043,-0.38777 19.92125,-4.90329 10.34902,-8.40281 11.92673,-23.6043 3.52388,-33.95327 -6.18987,-7.588513 -16.3513,-10.685104 -25.72123,-7.838294 -2.04159,0.309388 -4.0334,1.140216 -5.75875,2.541102 l -0.37937,0.308042 c -0.72333,0.451231 -1.422322,0.940216 -2.093931,1.46526 -0.651839,0.54944 -1.274054,1.13305 -1.864042,1.74841 l -41.718742,33.87331 c -0.723305,0.45122 -1.422326,0.9402 -2.093935,1.46526 z m 51.523612,-30.77914 a 4.7373276,4.7373276 0 0 1 6.66362,0.69198 4.7373276,4.7373276 0 0 1 -0.69155,6.66327 4.7373276,4.7373276 0 0 1 -6.6637,-0.69119 4.7373276,4.7373276 0 0 1 0.69163,-6.66406 z m -43.68415,44.9688 1.503812,-1.221 c 1.197411,-0.97224 2.943716,-0.79101 3.915949,0.4064 l 2.289226,2.81944 2.819428,-2.28922 c 1.19741,-0.97224 2.943726,-0.79099 3.915956,0.40642 l 1.221009,1.5038 c 0.972235,1.19742 0.790987,2.94372 -0.406418,3.91597 l -2.819427,2.28923 2.289213,2.81941 c 0.972245,1.19742 0.791,2.94374 -0.406416,3.91597 l -1.503807,1.22102 c -1.197411,0.97222 -2.943717,0.791 -3.915972,-0.40646 l -2.289216,-2.81941 -2.819423,2.28923 c -1.197415,0.97223 -2.94372,0.791 -3.915964,-0.40644 l -1.221017,-1.50382 c -0.972223,-1.19739 -0.790984,-2.94371 0.406433,-3.91594 l 2.819432,-2.28921 -2.289218,-2.81942 c -0.972244,-1.19743 -0.790996,-2.94375 0.40642,-3.91597 z m 42.15866,-30.27057 a 4.7373276,4.7373276 0 0 1 6.6637,0.69119 4.7373276,4.7373276 0 0 1 -0.69162,6.66406 4.7373276,4.7373276 0 0 1 -6.66404,-0.69164 4.7373276,4.7373276 0 0 1 0.69196,-6.66361 z m 16.22373,-13.17274 a 4.7373276,4.7373276 0 0 1 6.66325,0.69153 4.7373276,4.7373276 0 0 1 -0.69119,6.66368 4.7373276,4.7373276 0 0 1 -6.66404,-0.69162 4.7373276,4.7373276 0 0 1 0.69198,-6.66359 z m -1.52546,14.69821 a 4.7373276,4.7373276 0 0 1 6.66324,0.69154 4.7373276,4.7373276 0 0 1 -0.6912,6.6637 4.7373276,4.7373276 0 0 1 -6.66403,-0.69164 4.7373276,4.7373276 0 0 1 0.69199,-6.6636 z" />
        <g
           id="g5"
           transform="translate(3.1071444)">
          <path
             id="path2"
             style="fill:#8da5f3;fill-opacity:1;stroke-width:0.419845;stroke-linecap:square"
             d="m 55.670602,204.5946 c -0.006,-1.84522 -8.61032,-16.68587 -9.739435,-16.68587 -1.165527,0 -10.295336,15.81371 -9.712582,16.82309 0.218435,0.37834 2.920317,0.61486 6.243988,0.70958 v 12.00037 c 0,0.48081 0.386961,0.8682 0.867774,0.8682 h 5.201645 c 0.48081,0 0.86777,-0.38739 0.86777,-0.8682 V 205.4414 c 3.32367,-0.0947 6.02555,-0.33124 6.24399,-0.70958 0.0183,-0.0315 0.027,-0.0777 0.0269,-0.13722 z" />
          <path
             id="path3"
             style="fill:#8da5f3;fill-opacity:1;stroke-width:0.419845;stroke-linecap:square"
             d="m 83.010669,204.5946 c -0.006,-1.84522 -8.61032,-16.68587 -9.739435,-16.68587 -1.165527,0 -10.295336,15.81371 -9.712582,16.82309 0.218435,0.37834 2.920317,0.61486 6.243988,0.70958 v 12.00037 c 0,0.48081 0.386961,0.8682 0.867774,0.8682 h 5.201645 c 0.48081,0 0.86777,-0.38739 0.86777,-0.8682 V 205.4414 c 3.32367,-0.0947 6.02555,-0.33124 6.24399,-0.70958 0.0183,-0.0315 0.027,-0.0777 0.0269,-0.13722 z" />
          <path
             id="path4"
             style="fill:#8da5f3;fill-opacity:1;stroke-width:0.419845;stroke-linecap:square"
             d="m 110.35074,204.5946 c -0.006,-1.84522 -8.61032,-16.68587 -9.73944,-16.68587 -1.165526,0 -10.295335,15.81371 -9.712581,16.82309 0.218435,0.37834 2.920317,0.61486 6.243988,0.70958 v 12.00037 c 0,0.48081 0.386961,0.8682 0.867774,0.8682 h 5.201649 c 0.48081,0 0.86777,-0.38739 0.86777,-0.8682 V 205.4414 c 3.32367,-0.0947 6.02555,-0.33124 6.24399,-0.70958 0.0183,-0.0315 0.027,-0.0777 0.0269,-0.13722 z" />
          <path
             id="path5"
             style="fill:#8da5f3;fill-opacity:1;stroke-width:0.419845;stroke-linecap:square"
             d="m 137.69081,204.5946 c -0.006,-1.84522 -8.61032,-16.68587 -9.73944,-16.68587 -1.16553,0 -10.29534,15.81371 -9.71258,16.82309 0.21843,0.37834 2.92031,0.61486 6.24398,0.70958 v 12.00037 c 0,0.48081 0.38696,0.8682 0.86778,0.8682 h 5.20165 c 0.48081,0 0.86777,-0.38739 0.86777,-0.8682 V 205.4414 c 3.32367,-0.0947 6.02555,-0.33124 6.24399,-0.70958 0.0183,-0.0315 0.027,-0.0777 0.0269,-0.13722 z" />
        </g>
      </g>
    </g>
  </g>
</svg>
