<?xml version="1.0" encoding="UTF-8" standalone="no"?>
<svg
   width="16"
   height="16"
   version="1.1"
   id="svg1"
   sodipodi:docname="Bouncer.svg"
   inkscape:version="1.3 (0e150ed6c4, 2023-07-21)"
   xmlns:inkscape="http://www.inkscape.org/namespaces/inkscape"
   xmlns:sodipodi="http://sodipodi.sourceforge.net/DTD/sodipodi-0.dtd"
   xmlns="http://www.w3.org/2000/svg"
   xmlns:svg="http://www.w3.org/2000/svg">
  <defs
     id="defs1" />
  <sodipodi:namedview
     id="namedview1"
     pagecolor="#505050"
     bordercolor="#eeeeee"
     borderopacity="1"
     inkscape:showpageshadow="0"
     inkscape:pageopacity="0"
     inkscape:pagecheckerboard="0"
     inkscape:deskcolor="#505050"
     inkscape:zoom="35.929863"
     inkscape:cx="9.8664445"
     inkscape:cy="10.617909"
     inkscape:window-width="1920"
     inkscape:window-height="1009"
     inkscape:window-x="1912"
     inkscape:window-y="-8"
     inkscape:window-maximized="1"
     inkscape:current-layer="svg1" />
  <path
     id="path1-8"
     d="m 7.9843738,1.0011454 c -0.259356,0.00371 -0.50753,0.1080698 -0.691406,0.2910157 l -1.9999995,2 C 4.3826502,4.2346864 5.7645048,5.6165412 6.7070308,4.7062235 l 0.292968,-0.2929687 v 7.1718762 l -0.292968,-0.292969 c -0.942526,-0.910318 -2.3243806,0.471537 -1.4140625,1.414062 l 1.9999995,2 c 0.3905,0.390382 1.023563,0.390382 1.414063,0 l 2.0000002,-2 c 0.910321,-0.942525 -0.471538,-2.324383 -1.4140632,-1.414062 l -0.292969,0.292969 V 4.4132548 l 0.292969,0.2929687 C 10.235493,5.616545 11.617352,4.2346865 10.707031,3.2921611 l -2.0000002,-2 C 8.5153028,1.1013747 8.2548108,0.99637526 7.9843738,1.0011454 Z"
     style="fill:#8eef97;fill-opacity:1"
     sodipodi:nodetypes="cccccccccccccccccc" />
</svg>
