<?xml version="1.0" encoding="UTF-8" standalone="no"?>
<svg
   width="16"
   height="16"
   version="1.1"
   id="svg1"
   sodipodi:docname="BounceButton.svg"
   inkscape:version="1.3 (0e150ed6c4, 2023-07-21)"
   xmlns:inkscape="http://www.inkscape.org/namespaces/inkscape"
   xmlns:sodipodi="http://sodipodi.sourceforge.net/DTD/sodipodi-0.dtd"
   xmlns="http://www.w3.org/2000/svg"
   xmlns:svg="http://www.w3.org/2000/svg">
  <defs
     id="defs1" />
  <sodipodi:namedview
     id="namedview1"
     pagecolor="#505050"
     bordercolor="#eeeeee"
     borderopacity="1"
     inkscape:showpageshadow="0"
     inkscape:pageopacity="0"
     inkscape:pagecheckerboard="0"
     inkscape:deskcolor="#505050"
     inkscape:zoom="35.929863"
     inkscape:cx="9.8664445"
     inkscape:cy="10.617909"
     inkscape:window-width="1920"
     inkscape:window-height="1009"
     inkscape:window-x="1912"
     inkscape:window-y="-8"
     inkscape:window-maximized="1"
     inkscape:current-layer="svg1" />
  <path
     id="path1-8"
     d="m 12.537729,1.0011455 c -0.259356,0.00371 -0.50753,0.1080698 -0.691406,0.2910157 l -1.9999995,2 C 8.9360054,4.2346865 10.31786,5.6165413 11.260386,4.7062236 L 11.553354,4.4132549 V 11.585131 L 11.260386,11.292162 C 10.31786,10.381844 8.9360054,11.763699 9.8463235,12.706224 l 1.9999995,2 c 0.3905,0.390382 1.023563,0.390382 1.414063,0 l 2,-2 c 0.910321,-0.942525 -0.471538,-2.324383 -1.414063,-1.414062 l -0.292969,0.292969 V 4.4132549 l 0.292969,0.2929687 c 0.942525,0.9103215 2.324384,-0.471537 1.414063,-1.4140624 l -2,-2 C 13.068658,1.1013748 12.808166,0.9963754 12.537729,1.0011455 Z M 3.4420266,1.4991924 V 4.6320049 L 1.9967141,3.6671612 0.88733909,5.3312236 l 3.00000001,2 c 0.3360366,0.2241993 0.7733385,0.2241993 1.109375,0 l 3,-2 L 6.8873391,3.6671612 5.4420266,4.6320049 V 1.4991924 Z m -0.5,8 c -0.8284262,0 -1.5,0.6715746 -1.5,1.5000006 v 1.5 H 0.44202659 v 2 H 8.4420266 v -2 h -1 v -1.5 c 0,-0.828426 -0.6715738,-1.5000006 -1.5,-1.5000006 z"
     style="fill:#8eef97;fill-opacity:1" />
</svg>
