<?xml version="1.0" encoding="UTF-8" standalone="no"?>
<svg
   width="16"
   height="16"
   version="1.1"
   id="svg1"
   sodipodi:docname="FadeButton.svg"
   inkscape:version="1.3 (0e150ed6c4, 2023-07-21)"
   xmlns:inkscape="http://www.inkscape.org/namespaces/inkscape"
   xmlns:sodipodi="http://sodipodi.sourceforge.net/DTD/sodipodi-0.dtd"
   xmlns="http://www.w3.org/2000/svg"
   xmlns:svg="http://www.w3.org/2000/svg">
  <defs
     id="defs1" />
  <sodipodi:namedview
     id="namedview1"
     pagecolor="#505050"
     bordercolor="#eeeeee"
     borderopacity="1"
     inkscape:showpageshadow="0"
     inkscape:pageopacity="0"
     inkscape:pagecheckerboard="0"
     inkscape:deskcolor="#505050"
     inkscape:zoom="35.929863"
     inkscape:cx="6.6935963"
     inkscape:cy="6.4709403"
     inkscape:window-width="1920"
     inkscape:window-height="1009"
     inkscape:window-x="1912"
     inkscape:window-y="-8"
     inkscape:window-maximized="1"
     inkscape:current-layer="svg1" />
  <path
     id="path1"
     d="M 7 1 L 7 4.1328125 L 5.5546875 3.1679688 L 4.4453125 4.8320312 L 7.4453125 6.8320312 A 1 1 0 0 0 8.5546875 6.8320312 L 11.554688 4.8320312 L 10.445312 3.1679688 L 9 4.1328125 L 9 1 L 7 1 z M 5.5 9 A 1.5 1.5 0 0 0 4 10.5 L 4 12 L 2 12 L 2 14 L 14 14 L 14 12 L 12 12 L 12 10.5 A 1.5 1.5 0 0 0 10.5 9 L 5.5 9 z M 7.0703125 9.4960938 L 7.8710938 9.4960938 L 7.8710938 10.326172 L 8.671875 10.326172 L 8.671875 9.4960938 L 11.070312 9.4960938 L 11.070312 13.628906 L 8.671875 13.638672 L 8.671875 13.642578 L 7.8710938 13.642578 L 7.0703125 13.642578 L 7.0703125 12.814453 L 6.2714844 12.814453 L 6.2714844 11.984375 L 7.0703125 11.984375 L 7.0703125 11.154297 L 6.2714844 11.154297 L 6.2714844 10.326172 L 7.0703125 10.326172 L 7.0703125 9.4960938 z M 7.0703125 10.326172 L 7.0703125 11.154297 L 7.8710938 11.154297 L 7.8710938 10.326172 L 7.0703125 10.326172 z M 7.8710938 11.154297 L 7.8710938 11.984375 L 8.671875 11.984375 L 8.671875 11.154297 L 7.8710938 11.154297 z M 7.8710938 11.984375 L 7.0703125 11.984375 L 7.0703125 12.814453 L 7.8710938 12.814453 L 7.8710938 11.984375 z M 7.8710938 12.814453 L 7.8710938 13.642578 L 8.671875 13.638672 L 8.671875 12.814453 L 7.8710938 12.814453 z "
     style="fill:#b7e7bb;fill-opacity:1" />
</svg>
