<?xml version="1.0" encoding="UTF-8" standalone="no"?>
<svg
   width="16"
   height="16"
   version="1.1"
   id="svg1"
   sodipodi:docname="FadeLabel.svg"
   inkscape:version="1.3 (0e150ed6c4, 2023-07-21)"
   xmlns:inkscape="http://www.inkscape.org/namespaces/inkscape"
   xmlns:sodipodi="http://sodipodi.sourceforge.net/DTD/sodipodi-0.dtd"
   xmlns="http://www.w3.org/2000/svg"
   xmlns:svg="http://www.w3.org/2000/svg">
  <defs
     id="defs1" />
  <sodipodi:namedview
     id="namedview1"
     pagecolor="#505050"
     bordercolor="#eeeeee"
     borderopacity="1"
     inkscape:showpageshadow="0"
     inkscape:pageopacity="0"
     inkscape:pagecheckerboard="0"
     inkscape:deskcolor="#505050"
     inkscape:zoom="35.929863"
     inkscape:cx="9.8664445"
     inkscape:cy="10.617909"
     inkscape:window-width="1920"
     inkscape:window-height="1009"
     inkscape:window-x="1912"
     inkscape:window-y="-8"
     inkscape:window-maximized="1"
     inkscape:current-layer="svg1" />
  <path
     id="path1"
     d="M 6 3 A 1 1 0 0 0 5.2929688 3.2929688 L 1.2929688 7.2929688 A 1 1 0 0 0 1.2929688 8.7070312 L 5.2929688 12.707031 A 1 1 0 0 0 6 13 L 14 13 A 1 1 0 0 0 15 12 L 15 4 A 1 1 0 0 0 14 3 L 6 3 z M 9.3046875 3.5234375 L 10.304688 3.5234375 L 10.304688 4.5234375 L 11.304688 4.5234375 L 11.304688 3.5234375 L 14.304688 3.5234375 L 14.304688 12.523438 L 11.304688 12.523438 L 11.304688 11.523438 L 10.304688 11.523438 L 10.304688 12.523438 L 9.3046875 12.523438 L 9.3046875 11.523438 L 8.3046875 11.523438 L 8.3046875 10.523438 L 9.3046875 10.523438 L 9.3046875 9.5234375 L 8.3046875 9.5234375 L 8.3046875 8.5234375 L 9.3046875 8.5234375 L 9.3046875 7.5234375 L 8.3046875 7.5234375 L 8.3046875 6.5234375 L 9.3046875 6.5234375 L 9.3046875 5.5234375 L 8.3046875 5.5234375 L 8.3046875 4.5234375 L 9.3046875 4.5234375 L 9.3046875 3.5234375 z M 9.3046875 4.5234375 L 9.3046875 5.5234375 L 10.304688 5.5234375 L 10.304688 4.5234375 L 9.3046875 4.5234375 z M 10.304688 5.5234375 L 10.304688 6.5234375 L 11.304688 6.5234375 L 11.304688 5.5234375 L 10.304688 5.5234375 z M 10.304688 6.5234375 L 9.3046875 6.5234375 L 9.3046875 7.5234375 L 10.304688 7.5234375 L 10.304688 6.5234375 z M 10.304688 7.5234375 L 10.304688 8.5234375 L 11.304688 8.5234375 L 11.304688 7.5234375 L 10.304688 7.5234375 z M 10.304688 8.5234375 L 9.3046875 8.5234375 L 9.3046875 9.5234375 L 10.304688 9.5234375 L 10.304688 8.5234375 z M 10.304688 9.5234375 L 10.304688 10.523438 L 11.304688 10.523438 L 11.304688 9.5234375 L 10.304688 9.5234375 z M 10.304688 10.523438 L 9.3046875 10.523438 L 9.3046875 11.523438 L 10.304688 11.523438 L 10.304688 10.523438 z M 5 7 A 1 1 0 0 1 5 9 A 1 1 0 0 1 5 7 z "
     style="fill:#8eef97;fill-opacity:1" />
</svg>
