<?xml version="1.0" encoding="UTF-8" standalone="no"?>
<svg
   width="16"
   height="16"
   version="1.1"
   id="svg1"
   sodipodi:docname="Fader.svg"
   inkscape:version="1.3 (0e150ed6c4, 2023-07-21)"
   xmlns:inkscape="http://www.inkscape.org/namespaces/inkscape"
   xmlns:sodipodi="http://sodipodi.sourceforge.net/DTD/sodipodi-0.dtd"
   xmlns="http://www.w3.org/2000/svg"
   xmlns:svg="http://www.w3.org/2000/svg">
  <defs
     id="defs1" />
  <sodipodi:namedview
     id="namedview1"
     pagecolor="#505050"
     bordercolor="#eeeeee"
     borderopacity="1"
     inkscape:showpageshadow="0"
     inkscape:pageopacity="0"
     inkscape:pagecheckerboard="0"
     inkscape:deskcolor="#505050"
     inkscape:zoom="25.40625"
     inkscape:cx="3.6408364"
     inkscape:cy="9.702337"
     inkscape:window-width="1920"
     inkscape:window-height="1009"
     inkscape:window-x="1912"
     inkscape:window-y="-8"
     inkscape:window-maximized="1"
     inkscape:current-layer="svg1" />
  <path
     fill="#e0e0e0"
     d="M 5.1226497,3.9717096 A 1.1509401,1.1509401 0 0 0 3.9717096,5.1226497 V 10.87735 a 1.1509401,1.1509401 0 0 0 1.1509401,1.150941 H 10.87735 A 1.1509401,1.1509401 0 0 0 12.028291,10.87735 V 5.1226497 A 1.1509401,1.1509401 0 0 0 10.87735,3.9717096 Z m 0,1.1509401 H 10.87735 V 10.87735 H 5.1226497 Z M 7.712265,6.5613249 h 0.57547 v 0.57547 H 7.712265 Z M 5.4103848,5.4103848 V 10.589616 H 7.1367949 V 10.014145 H 7.712265 V 9.4386751 H 7.1367949 V 8.863205 H 7.712265 V 8.287735 H 7.1367949 V 7.712265 H 7.712265 V 7.1367949 H 7.1367949 v -0.57547 H 7.712265 v -0.57547 H 7.1367949 V 5.4103848 Z m 2.3018802,0 h 0.57547 v 0.5754701 h -0.57547 z m 0,3.4528202 h 0.57547 v 0.5754701 h -0.57547 z m 0,-1.15094 h 0.57547 v 0.57547 h -0.57547 z m 0,2.30188 h 0.57547 v 0.575471 h -0.57547 z m 0.57547,-4.0282901 h 0.57547 v 0.57547 h -0.57547 z m 0,1.15094 h 0.57547 V 7.712265 h -0.57547 z m 0,1.1509401 h 0.57547 v 0.57547 h -0.57547 z m 0,1.1509401 h 0.57547 v 0.5754699 h -0.57547 z"
     id="path1"
     style="stroke-width:0.57547;fill:#8eef97;fill-opacity:1" />
  <path
     fill="none"
     stroke="#e0e0e0"
     stroke-width="1.36215"
     d="M 3.223831,0.71773042 1.1806042,2.7609572 3.223831,4.804184 M 1.1806042,2.7609572 h 9.8347318 m 1.760833,8.4348588 2.043227,2.043227 -2.043227,2.043227 M 4.9836162,13.239043 h 9.8357798"
     id="path1-1"
     sodipodi:nodetypes="cccccccccc"
     style="stroke:#8eef97;stroke-opacity:1" />
</svg>
