<?xml version="1.0" encoding="UTF-8" standalone="no"?>
<svg
   width="16"
   height="16"
   version="1.1"
   id="svg1"
   sodipodi:docname="SaveElement2D.svg"
   inkscape:version="1.3 (0e150ed6c4, 2023-07-21)"
   xmlns:inkscape="http://www.inkscape.org/namespaces/inkscape"
   xmlns:sodipodi="http://sodipodi.sourceforge.net/DTD/sodipodi-0.dtd"
   xmlns="http://www.w3.org/2000/svg"
   xmlns:svg="http://www.w3.org/2000/svg">
  <defs
     id="defs1" />
  <sodipodi:namedview
     id="namedview1"
     pagecolor="#505050"
     bordercolor="#eeeeee"
     borderopacity="1"
     inkscape:showpageshadow="0"
     inkscape:pageopacity="0"
     inkscape:pagecheckerboard="0"
     inkscape:deskcolor="#505050"
     inkscape:zoom="25.40625"
     inkscape:cx="-4.7429274"
     inkscape:cy="8.403444"
     inkscape:window-width="1920"
     inkscape:window-height="1009"
     inkscape:window-x="1912"
     inkscape:window-y="-8"
     inkscape:window-maximized="1"
     inkscape:current-layer="svg1" />
  <path
     id="path1"
     style="stroke-width:0.767425;fill:#8da5f3;fill-opacity:1"
     d="M 2.9335938,1.8554688 C 2.0856802,1.8552993 1.398268,2.5427114 1.3984375,3.390625 v 7.673828 c -1.693e-4,0.847913 0.6872428,1.535326 1.5351563,1.535156 L 6.8625491,12.460449 10.241455,9.07959 C 9.4629208,7.4392723 10.692844,5.8916603 12.144531,5.40625 V 4.1582031 L 9.8417969,1.8554688 H 9.0742188 v 4.6054687 h -6.140625 z m 0.7675781,0 V 5.6914062 H 6.0039062 V 1.8554688 Z m 9.3007811,4.078125 c -1.527479,0.062826 -2.732779,1.7076944 -1.978515,3.296875 L 7.1308594,13.123047 c -0.7235344,0.723535 0.36045,1.809472 1.0839844,1.085937 L 12.109375,10.314453 C 14.063011,11.236961 16.096335,9.2036358 15.173828,7.25 l -1.53125,1.5332031 C 12.919045,9.506737 11.833106,8.4207996 12.556641,7.6972656 L 14.089844,6.1640625 C 13.72311,5.9900014 13.354448,5.9190954 13.001953,5.9335938 Z M 6.7714844,7.9941406 c 2.046874,0 2.046874,3.0703124 0,3.0703124 -2.046874,0 -2.046874,-3.0703124 0,-3.0703124 z"
     sodipodi:nodetypes="ccccccccccccccccccscsscccscssss" />
</svg>
