<svg width="168" height="168" viewBox="0 0 168 168" fill="none" xmlns="http://www.w3.org/2000/svg">
<g style="mix-blend-mode:multiply" opacity="0.4">
<circle cx="88" cy="88" r="80" fill="black"/>
</g>
<circle cx="84" cy="84" r="79" fill="#70E7FD" stroke="black" stroke-width="2"/>
<path d="M51.9775 19.5127C63.0067 14.0359 75.2565 11.4797 87.5556 12.0879C88.6588 12.1424 89.5096 13.0813 89.455 14.1846C89.4003 15.2876 88.4615 16.1375 87.3584 16.083C75.7424 15.5086 64.1733 17.9232 53.7568 23.0957C43.3403 28.2682 34.4242 36.0256 27.8613 45.6269C27.238 46.5388 25.9939 46.7727 25.082 46.1494C24.1701 45.5261 23.9362 44.282 24.5595 43.3701C31.5085 33.204 40.9483 24.9895 51.9775 19.5127Z" fill="white"/>
<rect x="98" y="14" width="5" height="5" rx="2.5" fill="white"/>
</svg>
