<?xml version="1.0" encoding="UTF-8" standalone="no"?>
<!-- Created with Inkscape (http://www.inkscape.org/) -->

<svg
   width="48.141693mm"
   height="48.141701mm"
   viewBox="0 0 48.141693 48.1417"
   version="1.1"
   id="svg1"
   inkscape:version="1.3 (0e150ed6c4, 2023-07-21)"
   sodipodi:docname="botao_acao.svg"
   xmlns:inkscape="http://www.inkscape.org/namespaces/inkscape"
   xmlns:sodipodi="http://sodipodi.sourceforge.net/DTD/sodipodi-0.dtd"
   xmlns="http://www.w3.org/2000/svg"
   xmlns:svg="http://www.w3.org/2000/svg">
  <sodipodi:namedview
     id="namedview1"
     pagecolor="#505050"
     bordercolor="#eeeeee"
     borderopacity="1"
     inkscape:showpageshadow="0"
     inkscape:pageopacity="0"
     inkscape:pagecheckerboard="0"
     inkscape:deskcolor="#505050"
     inkscape:document-units="mm"
     inkscape:zoom="1.0242632"
     inkscape:cx="67.853652"
     inkscape:cy="213.32407"
     inkscape:window-width="1920"
     inkscape:window-height="1009"
     inkscape:window-x="1912"
     inkscape:window-y="-8"
     inkscape:window-maximized="1"
     inkscape:current-layer="layer1" />
  <defs
     id="defs1" />
  <g
     inkscape:label="Layer 1"
     inkscape:groupmode="layer"
     id="layer1"
     transform="translate(-48.991877,-62.143011)">
    <path
       id="path1"
       style="fill:#4949ff;fill-opacity:1;stroke:none;stroke-width:0.983482;stroke-linecap:round;stroke-linejoin:round"
       d="M 73.062725,62.143011 A 24.070817,24.070817 0 0 0 48.991877,86.213859 24.070817,24.070817 0 0 0 73.062725,110.28471 24.070817,24.070817 0 0 0 97.13357,86.213859 24.070817,24.070817 0 0 0 73.062725,62.143011 Z m -7.409035,5.436654 h 14.818067 c -0.887939,3.757891 -1.799842,8.046881 -2.735352,12.867129 -0.459825,2.188139 -0.919829,4.384056 -1.379656,6.58805 -0.507394,2.457691 -0.760451,4.130025 -0.760451,5.017965 0,0.253696 0.01489,0.460645 0.04666,0.619205 -0.07929,0.01586 -0.927606,0.110599 -2.544926,0.285012 -0.903795,0.110989 -1.871172,0.25436 -2.901819,0.428778 -0.380544,-2.58454 -1.046237,-6.819317 -1.9976,-12.701923 -0.554964,-2.679675 -1.403287,-7.047194 -2.544926,-13.104216 z m 6.920984,28.445645 c 1.411191,0 2.632885,0.404531 3.66353,1.213192 1.062357,0.856227 1.592786,1.926447 1.592786,3.210788 0,1.23678 -0.530429,2.28268 -1.592786,3.13891 -1.0465,0.84037 -2.268194,1.26111 -3.66353,1.26111 -1.49047,0 -2.774485,-0.42074 -3.852698,-1.26111 -1.062357,-0.85623 -1.592783,-1.91834 -1.592783,-3.18683 0,-1.284343 0.514216,-2.330247 1.544861,-3.138908 1.0465,-0.824517 2.346724,-1.237152 3.90062,-1.237152 z" />
  </g>
</svg>
