<?xml version="1.0" encoding="UTF-8" standalone="no"?>
<!-- Created with Inkscape (http://www.inkscape.org/) -->

<svg
   width="16"
   height="16"
   viewBox="0 0 4.2333331 4.2333333"
   version="1.1"
   id="svg1"
   inkscape:version="1.3 (0e150ed6c4, 2023-07-21)"
   sodipodi:docname="PolyTouchControls2D.svg"
   inkscape:export-filename="Base2D.png"
   inkscape:export-xdpi="96"
   inkscape:export-ydpi="96"
   xmlns:inkscape="http://www.inkscape.org/namespaces/inkscape"
   xmlns:sodipodi="http://sodipodi.sourceforge.net/DTD/sodipodi-0.dtd"
   xmlns="http://www.w3.org/2000/svg"
   xmlns:svg="http://www.w3.org/2000/svg">
  <sodipodi:namedview
     id="namedview1"
     pagecolor="#505050"
     bordercolor="#eeeeee"
     borderopacity="1"
     inkscape:showpageshadow="0"
     inkscape:pageopacity="0"
     inkscape:pagecheckerboard="0"
     inkscape:deskcolor="#505050"
     inkscape:document-units="px"
     inkscape:zoom="8.3956825"
     inkscape:cx="-5.4194522"
     inkscape:cy="21.618254"
     inkscape:window-width="1920"
     inkscape:window-height="1009"
     inkscape:window-x="1912"
     inkscape:window-y="-8"
     inkscape:window-maximized="1"
     inkscape:current-layer="g9" />
  <defs
     id="defs1" />
  <g
     inkscape:label="Camada 1"
     inkscape:groupmode="layer"
     id="layer1"
     transform="translate(-31.201158,-116.91017)">
    <g
       id="g4"
       transform="translate(-0.26740696,1.0696279)" />
    <g
       id="g6"
       transform="rotate(-90,116.18433,156.3172)" />
    <g
       id="g10"
       transform="matrix(0.56376851,0,0,0.56376851,14.30131,63.147709)">
      <g
         id="g9">
        <path
           id="path1"
           style="fill:#8da5f3;fill-opacity:1;stroke:none;stroke-width:0.0672766;stroke-linecap:square"
           d="M 35.725645 95.453399 C 35.651316 95.452675 35.575672 95.46156 35.500155 95.481815 L 35.467157 95.490981 C 35.407747 95.499281 35.348459 95.510446 35.290248 95.524896 C 35.232608 95.541476 35.176232 95.56096 35.120673 95.58356 L 31.467922 96.562515 C 31.408512 96.570815 31.35014 96.581981 31.29193 96.596431 C 31.21269 96.617731 31.135346 96.644554 31.060024 96.677094 C 31.003964 96.698794 30.951056 96.725867 30.902364 96.757757 C 30.225566 97.136709 29.891898 97.926619 30.091151 98.676253 C 30.267292 99.333619 30.806498 99.795209 31.434924 99.90728 A 0.79245293 0.79245293 0 0 1 32.081144 99.570879 A 0.79245293 0.79245293 0 0 1 32.54954 99.723955 C 32.865789 99.54999 33.1223 99.278485 33.275507 98.943907 L 33.448749 98.897159 L 33.448749 97.633133 C 33.448749 96.866289 34.416591 96.744896 34.723774 97.268317 A 0.33329511 0.33329511 0 0 1 34.964846 96.997912 A 0.33329511 0.33329511 0 0 1 35.372745 97.233485 A 0.33329511 0.33329511 0 0 1 35.137172 97.6423 A 0.33329511 0.33329511 0 0 1 34.81177 97.545137 C 34.814729 97.573596 34.816353 97.602635 34.816353 97.633133 L 34.816353 98.593756 C 35.21662 98.850316 35.707454 98.928403 36.169292 98.805497 C 37.07522 98.562756 37.612816 97.631601 37.37007 96.725675 C 37.190253 96.060576 36.626466 95.569697 35.942885 95.483648 C 35.872875 95.464288 35.799974 95.454123 35.725645 95.453399 z M 35.614734 96.089537 A 0.33329511 0.33329511 0 0 1 35.892471 96.333359 A 0.33329511 0.33329511 0 0 1 35.656898 96.741257 A 0.33329511 0.33329511 0 0 1 35.249 96.505685 A 0.33329511 0.33329511 0 0 1 35.484573 96.097787 A 0.33329511 0.33329511 0 0 1 35.614734 96.089537 z M 36.514859 96.609263 A 0.33329511 0.33329511 0 0 1 36.793513 96.853086 A 0.33329511 0.33329511 0 0 1 36.557941 97.2619 A 0.33329511 0.33329511 0 0 1 36.149126 97.025411 A 0.33329511 0.33329511 0 0 1 36.384699 96.617513 A 0.33329511 0.33329511 0 0 1 36.514859 96.609263 z M 35.995133 97.509389 A 0.33329511 0.33329511 0 0 1 36.273787 97.754128 A 0.33329511 0.33329511 0 0 1 36.038214 98.162026 A 0.33329511 0.33329511 0 0 1 35.6294 97.926453 A 0.33329511 0.33329511 0 0 1 35.864972 97.517639 A 0.33329511 0.33329511 0 0 1 35.995133 97.509389 z M 31.558668 97.690881 C 31.649748 97.685324 31.734833 97.743997 31.759409 97.835708 L 31.825406 98.08228 L 32.072895 98.016283 C 32.177712 97.988193 32.284048 98.049882 32.312134 98.154693 L 32.347882 98.286687 C 32.375962 98.391505 32.314286 98.498755 32.209472 98.526843 L 31.961983 98.59284 L 32.028897 98.839412 C 32.056987 98.944232 31.995299 99.051488 31.890486 99.079568 L 31.758492 99.114399 C 31.653674 99.142399 31.546422 99.080889 31.518336 98.975989 L 31.452339 98.729417 L 31.205767 98.795414 C 31.100948 98.823514 30.993698 98.761882 30.965612 98.657004 L 30.93078 98.52501 C 30.90269 98.420194 30.964377 98.313855 31.06919 98.28577 L 31.315762 98.219773 L 31.249765 97.972285 C 31.221685 97.867466 31.283362 97.761131 31.388176 97.733046 L 31.52017 97.697297 C 31.533272 97.693787 31.545657 97.691675 31.558668 97.690881 z " />
        <path
           fill="#8da5f3"
           d="m 34.592108,99.505796 v -1.87724 c 0,-0.62575 -0.938624,-0.62575 -0.938624,0 v 3.308644 l -1.17328,-0.84476 c -0.54753,-0.508354 -1.310162,0.31295 -0.762632,0.8213 l 1.935912,1.87725 h 2.815872 c 0.51839,0 0.938627,-0.42024 0.938624,-0.93863 v -1.40793 c 3e-6,-0.518394 -0.420234,-0.938634 -0.938624,-0.938634 z"
           id="path1-2"
           style="stroke-width:0.469312"
           sodipodi:nodetypes="cssccccsccsc" />
      </g>
    </g>
  </g>
</svg>
