<?xml version="1.0" encoding="UTF-8" standalone="no"?>
<!-- Created with Inkscape (http://www.inkscape.org/) -->

<svg
   width="256"
   height="256"
   viewBox="0 0 67.733332 67.733333"
   version="1.1"
   id="svg1"
   inkscape:version="1.3 (0e150ed6c4, 2023-07-21)"
   sodipodi:docname="Circle.svg"
   xmlns:inkscape="http://www.inkscape.org/namespaces/inkscape"
   xmlns:sodipodi="http://sodipodi.sourceforge.net/DTD/sodipodi-0.dtd"
   xmlns="http://www.w3.org/2000/svg"
   xmlns:svg="http://www.w3.org/2000/svg">
  <sodipodi:namedview
     id="namedview1"
     pagecolor="#505050"
     bordercolor="#eeeeee"
     borderopacity="1"
     inkscape:showpageshadow="0"
     inkscape:pageopacity="0"
     inkscape:pagecheckerboard="0"
     inkscape:deskcolor="#505050"
     inkscape:document-units="px"
     inkscape:zoom="2.0989207"
     inkscape:cx="111.00943"
     inkscape:cy="166.03772"
     inkscape:window-width="1920"
     inkscape:window-height="1009"
     inkscape:window-x="1912"
     inkscape:window-y="-8"
     inkscape:window-maximized="1"
     inkscape:current-layer="layer1" />
  <defs
     id="defs1" />
  <g
     inkscape:label="Layer 1"
     inkscape:groupmode="layer"
     id="layer1">
    <path
       id="path1"
       style="opacity:1;fill:#ffffff;stroke:none;stroke-width:1.95695;stroke-linecap:round;fill-opacity:1"
       d="M 33.866666 0 A 33.866665 33.866665 0 0 0 0 33.866666 A 33.866665 33.866665 0 0 0 33.866666 67.733332 A 33.866665 33.866665 0 0 0 67.733332 33.866666 A 33.866665 33.866665 0 0 0 33.866666 0 z M 33.866666 3.5295003 A 30.337072 30.337072 0 0 1 64.203832 33.866666 A 30.337072 30.337072 0 0 1 33.866666 64.203832 A 30.337072 30.337072 0 0 1 3.5295003 33.866666 A 30.337072 30.337072 0 0 1 33.866666 3.5295003 z " />
  </g>
</svg>
