<?xml version="1.0" encoding="UTF-8" standalone="no"?>
<!-- Created with Inkscape (http://www.inkscape.org/) -->

<svg
   width="256"
   height="256"
   viewBox="0 0 67.733333 67.733333"
   version="1.1"
   id="svg1"
   inkscape:version="1.4 (86a8ad7, 2024-10-11)"
   sodipodi:docname="PlayerStakeholder.svg"
   xmlns:inkscape="http://www.inkscape.org/namespaces/inkscape"
   xmlns:sodipodi="http://sodipodi.sourceforge.net/DTD/sodipodi-0.dtd"
   xmlns="http://www.w3.org/2000/svg"
   xmlns:svg="http://www.w3.org/2000/svg">
  <sodipodi:namedview
     id="namedview1"
     pagecolor="#ffffff"
     bordercolor="#000000"
     borderopacity="0.25"
     inkscape:showpageshadow="2"
     inkscape:pageopacity="0.0"
     inkscape:pagecheckerboard="0"
     inkscape:deskcolor="#d1d1d1"
     inkscape:document-units="px"
     inkscape:zoom="1.9477379"
     inkscape:cx="173.53464"
     inkscape:cy="161.98278"
     inkscape:window-width="1920"
     inkscape:window-height="991"
     inkscape:window-x="-9"
     inkscape:window-y="-9"
     inkscape:window-maximized="1"
     inkscape:current-layer="layer1" />
  <defs
     id="defs1" />
  <g
     inkscape:label="Camada 1"
     inkscape:groupmode="layer"
     id="layer1"
     transform="translate(-63.458047,-157.0148)">
    <path
       id="path1"
       style="fill:#999999;stroke:#000000;stroke-width:2.565;stroke-dasharray:none"
       d="m 97.420555,167.73223 a 5.9553685,5.9553685 0 0 0 -5.955193,5.95571 5.9553685,5.9553685 0 0 0 0.0088,0.12196 20.555628,20.555628 0 0 0 -13.409517,12.90153 7.8764553,7.6843467 0 0 0 -3.696932,-0.92087 7.8764553,7.6843467 0 0 0 -7.876522,7.68429 7.8764553,7.6843467 0 0 0 7.876522,7.68428 7.8764553,7.6843467 0 0 0 3.700032,-0.90072 20.555628,20.555628 0 0 0 19.352823,13.77229 20.555628,20.555628 0 0 0 19.366792,-13.68392 7.8764553,7.6843467 0 0 0 3.49436,0.81235 7.8764553,7.6843467 0 0 0 7.87652,-7.68428 7.8764553,7.6843467 0 0 0 -7.87652,-7.68429 7.8764553,7.6843467 0 0 0 -3.51606,0.82476 20.555628,20.555628 0 0 0 -13.39195,-12.81473 5.9553685,5.9553685 0 0 0 0.003,-0.11265 5.9553685,5.9553685 0 0 0 -5.955721,-5.95571 z" />
    <g
       id="g3"
       transform="translate(0,-0.1920929)" />
  </g>
</svg>
